<?xml version="1.0" encoding="iso-8859-1"?>
<!-- Generator: Adobe Illustrator 19.0.0, SVG Export Plug-In . SVG Version: 6.00 Build 0)  -->
<svg xmlns="http://www.w3.org/2000/svg" xmlns:xlink="http://www.w3.org/1999/xlink" version="1.1" id="Capa_1" x="0px" y="0px" viewBox="0 0 511.999 511.999" style="enable-background:new 0 0 511.999 511.999;" xml:space="preserve">
<g>
	<g>
		<g>
			<path d="M334.928,48.725h-29.643V26.99c0-14.883-11.696-26.99-26.071-26.99h-11.607c-4.142,0-7.5,3.357-7.5,7.5     s3.358,7.5,7.5,7.5h11.607c6.104,0,11.071,5.379,11.071,11.99v87.706c0,6.611-4.967,11.99-11.071,11.99h-46.429     c-6.104,0-11.071-5.379-11.071-11.99V26.99c0-6.611,4.967-11.99,11.071-11.99h11.607c4.142,0,7.5-3.357,7.5-7.5     s-3.358-7.5-7.5-7.5h-11.607c-14.376,0-26.072,12.107-26.072,26.99v21.736h-29.643c-14.376,0-26.071,12.107-26.071,26.99v194.902     c0,36.376,28.358,65.971,63.214,65.971h20.357v11.99c0,9.509,7.53,17.245,16.786,17.245h9.286c0.968,0,1.786,1.028,1.786,2.245     v11.99h-68.571v-27.582c0-4.143-3.358-7.5-7.5-7.5c-4.142,0-7.5,3.357-7.5,7.5v93.065c0,0.081,0.002,0.163,0.004,0.244     c-0.003,0.08-0.004,0.162-0.004,0.243v38.98c0,14.883,11.695,26.99,26.071,26.99H307.07c14.376,0,26.072-12.107,26.072-26.99     v-68.216c0-4.143-3.358-7.5-7.5-7.5c-4.142,0-7.5,3.357-7.5,7.5v21.735h-40.714v-11.99c0-9.509-7.531-17.245-16.786-17.245     h-9.286c-0.968,0-1.786-1.028-1.786-2.245v-11.99h76.072c4.142,0,7.5-3.357,7.5-7.5v-62.279     c16.796-11.871,27.857-31.944,27.857-54.662V75.716C360.999,60.833,349.304,48.726,334.928,48.725z M262.427,485.01V497h-57.5     c-6.104,0-11.071-5.379-11.071-11.99v-31.48h40.714v11.99c0,9.509,7.53,17.245,16.786,17.245h9.286     c0.968,0,1.786,1.028,1.786,2.245H262.427z M318.143,453.53v31.48c0,6.611-4.967,11.99-11.072,11.99h-29.643v-11.991     c0-9.509-7.531-17.245-16.786-17.245h-9.286c-0.968,0-1.786-1.028-1.786-2.245V453.53H318.143z M251.355,424.295h9.286     c0.968,0,1.786,1.028,1.786,2.245v11.99H242.07h-48.214v-43.471h40.714v11.99C234.57,416.558,242.101,424.294,251.355,424.295z      M318.143,380.058H277.43v-11.99c0-9.509-7.531-17.245-16.786-17.245h-9.286c-0.968,0-1.786-1.028-1.786-2.245v-11.99h48.214     c7.118,0,13.967-1.235,20.357-3.509h0.001V380.058z M345.999,75.716v194.901c0,28.106-21.629,50.971-48.214,50.971h-83.571     c-26.585,0-48.214-22.866-48.214-50.971V75.716c0-6.611,4.967-11.99,11.071-11.99h29.643v50.971     c0,14.883,11.696,26.99,26.071,26.99h46.429c14.375,0,26.071-12.107,26.071-26.99V63.726h29.643     C341.032,63.726,345.999,69.105,345.999,75.716L345.999,75.716z"/>
			<path d="M297.784,224.138h-20.738c-4.142,0-7.5,3.357-7.5,7.5s3.358,7.5,7.5,7.5h20.738c6.105,0,11.072,5.379,11.072,11.99     v19.489c0,6.611-4.967,11.99-11.072,11.99h-83.571c-6.104,0-11.071-5.379-11.071-11.99v-19.489c0-6.611,4.967-11.99,11.071-11.99     h35.905c4.142,0,7.5-3.357,7.5-7.5s-3.358-7.5-7.5-7.5h-35.905c-14.376,0-26.071,12.107-26.071,26.99v19.489     c0,14.883,11.695,26.99,26.071,26.99h83.571c14.376,0,26.072-12.107,26.072-26.99v-19.489     C323.856,236.245,312.161,224.138,297.784,224.138z"/>
		</g>
	</g>
</g>
<g>
</g>
<g>
</g>
<g>
</g>
<g>
</g>
<g>
</g>
<g>
</g>
<g>
</g>
<g>
</g>
<g>
</g>
<g>
</g>
<g>
</g>
<g>
</g>
<g>
</g>
<g>
</g>
<g>
</g>
</svg>
