<?xml version="1.0" encoding="iso-8859-1"?>
<!-- Generator: Adobe Illustrator 19.0.0, SVG Export Plug-In . SVG Version: 6.00 Build 0)  -->
<svg xmlns="http://www.w3.org/2000/svg" xmlns:xlink="http://www.w3.org/1999/xlink" version="1.1" id="Capa_1" x="0px" y="0px" viewBox="0 0 511.999 511.999" style="enable-background:new 0 0 511.999 511.999;" xml:space="preserve">
<g>
	<g>
		<g>
			<path d="M274.766,161.926c13.672,0,25.342-4.707,30.456-12.283c2.317-3.434,1.412-8.095-2.021-10.413     c-3.435-2.317-8.095-1.413-10.413,2.02c-1.59,2.356-8.233,5.675-18.023,5.675c-9.79,0-16.433-3.318-18.023-5.675     c-2.317-3.434-6.981-4.338-10.413-2.02c-3.433,2.317-4.338,6.979-2.021,10.413C249.424,157.22,261.094,161.926,274.766,161.926z"/>
			<path d="M232.535,203.356v19.807l-31.089,0.001c-4.143,0-7.5,3.358-7.5,7.5c0,4.142,3.358,7.5,7.5,7.5l38.589-0.001     c4.143,0,7.5-3.358,7.5-7.5v-32.168c0-3.051-1.849-5.798-4.675-6.948c-22.946-9.329-37.774-31.59-37.774-56.711V27.09     c0-6.666,5.291-12.09,11.795-12.09c6.504,0,11.795,5.423,11.795,12.09v26.197c0,2.581,1.326,4.98,3.512,6.352     c2.187,1.373,4.922,1.526,7.247,0.403c8.064-3.89,16.704-5.862,25.683-5.862h19.295c8.979,0,17.619,1.972,25.683,5.862     c2.324,1.122,5.06,0.97,7.247-0.403c2.186-1.372,3.512-3.771,3.512-6.352V27.09c0-6.666,5.291-12.09,11.795-12.09     c6.503,0,11.794,5.423,11.794,12.09v29.594c0,4.142,3.357,7.5,7.5,7.5s7.5-3.358,7.5-7.5V27.09     c0-14.937-12.02-27.09-26.794-27.09c-14.775,0-26.795,12.153-26.795,27.09v15.24c-6.911-2.093-14.087-3.15-21.441-3.15h-19.295     c-7.355,0-14.53,1.057-21.442,3.15V27.09c0-14.937-12.021-27.09-26.795-27.09c-14.774,0-26.795,12.153-26.795,27.09v107.746     C190.086,164.353,206.585,190.714,232.535,203.356z"/>
			<path d="M252.795,108.101c0,4.142,3.357,7.5,7.5,7.5c4.143,0,7.5-3.358,7.5-7.5c0-12.237-9.857-22.192-21.972-22.192     c-12.114,0-21.971,9.955-21.971,22.192c0,4.142,3.357,7.5,7.5,7.5s7.5-3.358,7.5-7.5c0-3.966,3.127-7.192,6.971-7.192     S252.795,104.135,252.795,108.101z"/>
			<path d="M449.382,223.164l-132.385-0.001v-19.807c25.949-12.642,42.447-39.003,42.447-68.52V84.187c0-4.142-3.357-7.5-7.5-7.5     s-7.5,3.358-7.5,7.5v50.649c0,25.121-14.827,47.382-37.773,56.711c-2.826,1.15-4.675,3.897-4.675,6.948v32.168     c0,4.142,3.357,7.5,7.5,7.5l139.885,0.001c9.163,0,16.618,7.621,16.618,16.988s-7.455,16.987-16.618,16.987h-79.912     c-15.927,0-28.885,13.105-28.885,29.213v9.252c0,16.03,0.716,32.253,2.127,48.217c0.345,3.901,3.618,6.84,7.462,6.84     c0.222,0,0.445-0.01,0.669-0.03c4.126-0.365,7.176-4.005,6.811-8.132c-1.372-15.527-2.068-31.305-2.068-46.896v-9.252     c0-7.836,6.229-14.212,13.885-14.212h79.912c17.434,0,31.618-14.35,31.618-31.988S466.816,223.164,449.382,223.164z"/>
			<path d="M310.678,108.101c0,4.142,3.357,7.5,7.5,7.5s7.5-3.358,7.5-7.5c0-12.237-9.857-22.192-21.971-22.192     s-21.971,9.955-21.971,22.192c0,4.142,3.357,7.5,7.5,7.5s7.5-3.358,7.5-7.5c0-3.966,3.127-7.192,6.971-7.192     S310.678,104.135,310.678,108.101z"/>
			<path d="M373.189,446.363c-5.384-20.396-9.592-41.345-12.509-62.266c-0.571-4.103-4.366-6.961-8.463-6.393     c-4.103,0.572-6.965,4.361-6.393,8.464c2.998,21.511,7.325,43.051,12.86,64.023l6.704,25.402     c0.838,3.176,0.763,6.499-0.217,9.611c-1.744,5.538-6.064,9.736-11.555,11.23c-4.486,1.221-9.131,0.508-13.073-2.006     c-3.574-2.279-6.147-5.826-7.244-9.986l-18.901-71.622c-4.789-18.143-21.087-30.814-39.633-30.814     c-18.548,0-34.845,12.671-39.633,30.814l-18.901,71.621c-2.334,8.845-11.302,14.264-20.006,12.074     c-4.164-1.047-7.721-3.764-10.013-7.648c-2.447-4.148-3.151-9.179-1.93-13.806l6.564-24.871     c8.501-32.213,14.02-65.156,16.529-98.362l59.891-11.894v20.188c0,4.142,3.357,7.5,7.5,7.5s7.5-3.358,7.5-7.5v-23.167     l8.432-1.675c4.063-0.807,6.702-4.755,5.896-8.818c-0.808-4.063-4.756-6.701-8.817-5.896l-5.51,1.094v-14.127l8.402-1.634     c4.065-0.791,6.721-4.728,5.931-8.794c-0.789-4.065-4.719-6.718-8.794-5.931l-5.539,1.077v-14.104l8.402-1.634     c4.065-0.791,6.721-4.728,5.931-8.794c-0.789-4.066-4.719-6.719-8.794-5.931l-5.539,1.077v-30.081c0-4.142-3.357-7.5-7.5-7.5     s-7.5,3.358-7.5,7.5v32.998l-8.402,1.634c-4.065,0.791-6.721,4.728-5.931,8.794c0.696,3.583,3.836,6.07,7.355,6.07     c0.474,0,0.956-0.045,1.439-0.139l5.539-1.077v14.103l-8.402,1.634c-4.065,0.791-6.721,4.728-5.931,8.794     c0.696,3.583,3.836,6.07,7.355,6.07c0.474,0,0.956-0.045,1.439-0.139l5.539-1.077v14.19l-58.931,11.704     c0.404-8.57,0.611-17.153,0.611-25.74v-9.252c0-16.108-12.958-29.213-28.885-29.213H100.15c-9.163,0-16.618-7.621-16.618-16.988     s7.455-16.987,16.618-16.987h73.441c4.143,0,7.5-3.358,7.5-7.5c0-4.142-3.357-7.5-7.5-7.5H100.15     c-17.435,0-31.618,14.35-31.618,31.988s14.184,31.988,31.618,31.988h79.912c7.656,0,13.885,6.376,13.885,14.212v9.252     c0,9.596-0.275,19.184-0.793,28.756L57.981,366.205c-18.07,3.602-29.893,21.412-26.356,39.701     c1.73,8.947,6.817,16.652,14.324,21.694c7.391,4.964,16.25,6.744,24.96,5.008l57.276-11.419c3.08-0.613,6.216,0.02,8.836,1.779     c2.708,1.819,4.546,4.613,5.176,7.868c0.693,3.586,3.834,6.078,7.355,6.078c0.472,0,0.951-0.045,1.432-0.138     c4.067-0.787,6.727-4.721,5.939-8.788c-1.393-7.204-5.49-13.409-11.538-17.472c-5.96-4.004-13.111-5.438-20.132-4.039     l-57.277,11.419c-4.758,0.948-9.612-0.027-13.663-2.749c-4.168-2.799-6.995-7.093-7.962-12.091     c-1.976-10.214,4.557-20.147,14.556-22.14l131.185-26.054c-2.577,30.885-7.838,61.518-15.75,91.5l-6.564,24.871     c-2.237,8.476-0.956,17.682,3.516,25.258c4.346,7.364,11.19,12.539,19.273,14.572c16.625,4.183,33.748-6.044,38.168-22.794     l18.901-71.622c3.052-11.564,13.385-19.641,25.129-19.641c11.743,0,22.076,8.077,25.129,19.641l18.901,71.622     c2.063,7.815,6.922,14.494,13.682,18.805c5.088,3.245,10.969,4.925,16.895,4.925c2.742,0,5.495-0.36,8.183-1.091     c10.442-2.841,18.639-10.765,21.924-21.198c1.833-5.818,1.976-12.023,0.414-17.944L373.189,446.363z"/>
		</g>
	</g>
</g>
<g>
</g>
<g>
</g>
<g>
</g>
<g>
</g>
<g>
</g>
<g>
</g>
<g>
</g>
<g>
</g>
<g>
</g>
<g>
</g>
<g>
</g>
<g>
</g>
<g>
</g>
<g>
</g>
<g>
</g>
</svg>
