<?xml version="1.0" encoding="iso-8859-1"?>
<!-- Generator: Adobe Illustrator 19.0.0, SVG Export Plug-In . SVG Version: 6.00 Build 0)  -->
<svg xmlns="http://www.w3.org/2000/svg" xmlns:xlink="http://www.w3.org/1999/xlink" version="1.1" id="Capa_1" x="0px" y="0px" viewBox="0 0 512 512" style="enable-background:new 0 0 512 512;" xml:space="preserve">
<g>
	<g>
		<path d="M403.64,326.156h-82.015v-23.828h2.188c4.142,0,7.5-3.357,7.5-7.5s-3.358-7.5-7.5-7.5h-2.188V263.5h2.188    c4.142,0,7.5-3.357,7.5-7.5s-3.358-7.5-7.5-7.5h-2.188v-23.828h2.188c4.142,0,7.5-3.357,7.5-7.5s-3.358-7.5-7.5-7.5h-2.188    v-23.828h2.188c4.142,0,7.5-3.357,7.5-7.5s-3.358-7.5-7.5-7.5h-2.188v-23.828h2.188c4.142,0,7.5-3.357,7.5-7.5s-3.358-7.5-7.5-7.5    h-2.188v-23.828h2.188c4.142,0,7.5-3.357,7.5-7.5s-3.358-7.5-7.5-7.5h-2.188V76.035c0-7.16-2.75-13.689-7.25-18.588l18.553-11.619    c5.054-3.166,8.072-8.619,8.072-14.587V17.207C341,7.719,333.29,0,323.813,0H114.885c-4.142,0-7.5,3.357-7.5,7.5    s3.358,7.5,7.5,7.5h208.927c1.206,0,2.188,0.99,2.188,2.207v14.034c0,0.769-0.387,1.47-1.034,1.875l-25.464,15.946    c-1.74-0.346-3.538-0.527-5.377-0.527H62.875c-1.84,0-3.638,0.182-5.377,0.528L32.034,33.117C31.387,32.711,31,32.01,31,31.241    V17.207C31,15.99,31.981,15,33.188,15h51.99c4.142,0,7.5-3.357,7.5-7.5S89.32,0,85.177,0h-51.99C23.71,0,16,7.719,16,17.207    v14.034c0,5.968,3.018,11.421,8.072,14.588l18.553,11.618c-4.5,4.898-7.25,11.428-7.25,18.588v17.152h-2.188    c-4.142,0-7.5,3.357-7.5,7.5s3.358,7.5,7.5,7.5h2.188v23.828h-2.188c-4.142,0-7.5,3.357-7.5,7.5s3.358,7.5,7.5,7.5h2.188v23.828    h-2.188c-4.142,0-7.5,3.357-7.5,7.5s3.358,7.5,7.5,7.5h2.188v23.828h-2.188c-4.142,0-7.5,3.357-7.5,7.5s3.358,7.5,7.5,7.5h2.188    V248.5h-2.188c-4.142,0-7.5,3.357-7.5,7.5s3.358,7.5,7.5,7.5h2.188v23.828h-2.188c-4.142,0-7.5,3.357-7.5,7.5s3.358,7.5,7.5,7.5    h2.188v23.828h-2.188c-4.142,0-7.5,3.357-7.5,7.5s3.358,7.5,7.5,7.5h2.188v23.828h-2.188c-4.142,0-7.5,3.357-7.5,7.5    s3.358,7.5,7.5,7.5h2.188v23.828h-2.188c-4.142,0-7.5,3.357-7.5,7.5s3.358,7.5,7.5,7.5h2.188v15.211    c0,7.764,3.234,14.787,8.426,19.792l-19.729,12.356c-5.054,3.167-8.072,8.62-8.072,14.588v14.034C16,504.281,23.71,512,33.188,512    H250.43c4.142,0,7.5-3.357,7.5-7.5s-3.358-7.5-7.5-7.5H33.188c-1.206,0-2.188-0.99-2.188-2.207v-14.034    c0-0.769,0.387-1.47,1.034-1.875l27.959-17.51c0.947,0.099,1.909,0.149,2.881,0.149h231.25c0.973,0,1.935-0.051,2.882-0.15    l27.958,17.51c0.648,0.406,1.035,1.107,1.035,1.876v14.034c0,1.217-0.981,2.207-2.188,2.207h-44.804c-4.142,0-7.5,3.357-7.5,7.5    s3.358,7.5,7.5,7.5h44.804c9.477,0,17.188-7.719,17.188-17.207v-14.034c0-5.968-3.018-11.421-8.072-14.588l-19.729-12.355    c5.192-5.005,8.426-12.028,8.426-19.792v-15.211h2.188c4.142,0,7.5-3.357,7.5-7.5s-3.358-7.5-7.5-7.5h-2.188v-23.828h2.188    c4.142,0,7.5-3.357,7.5-7.5s-3.358-7.5-7.5-7.5h-2.188v-23.828h82.015c4.142,0,7.5-3.357,7.5-7.5S407.782,326.156,403.64,326.156z     M306.625,434.023c0,6.893-5.607,12.5-12.5,12.5H62.875c-6.893,0-12.5-5.607-12.5-12.5v-15.211h256.25V434.023z M306.625,403.813    H50.375v-23.828h256.25V403.813z M306.625,364.984H50.375v-23.828h256.25V364.984z M306.625,326.156H50.375v-23.828h256.25    V326.156z M306.625,287.328H50.375V263.5h256.25V287.328z M306.625,248.5H50.375v-23.828h256.25V248.5z M306.625,209.672H50.375    v-23.828h256.25V209.672z M306.625,170.844H50.375v-23.828h256.25V170.844z M306.625,132.016H50.375v-23.828h256.25V132.016z     M306.625,93.188H50.375V76.035c0-6.893,5.607-12.5,12.5-12.5h231.25c6.893,0,12.5,5.607,12.5,12.5V93.188z"/>
	</g>
</g>
<g>
	<g>
		<path d="M459.438,248.823L411,248.821c-11.89,0-21.563-9.699-21.563-21.621v-19.09c0-11.922,9.673-21.621,21.563-21.621h48.438    c20.161,0,36.563-16.428,36.563-36.621c0-4.143-3.358-7.5-7.5-7.5c-4.142,0-7.5,3.357-7.5,7.5    c0,11.922-9.673,21.621-21.563,21.621H411c-20.161,0-36.563,16.428-36.563,36.621v19.09c0,20.193,16.402,36.621,36.562,36.621    l48.438,0.002c11.89,0,21.563,9.699,21.563,21.621v19.091c0,11.922-9.673,21.621-21.563,21.621h-27.852    c-4.142,0-7.5,3.357-7.5,7.5s3.358,7.5,7.5,7.5h27.852c20.161,0,36.563-16.428,36.563-36.621v-19.091    C496,265.251,479.598,248.823,459.438,248.823z"/>
	</g>
</g>
<g>
</g>
<g>
</g>
<g>
</g>
<g>
</g>
<g>
</g>
<g>
</g>
<g>
</g>
<g>
</g>
<g>
</g>
<g>
</g>
<g>
</g>
<g>
</g>
<g>
</g>
<g>
</g>
<g>
</g>
</svg>
