<?xml version="1.0" encoding="iso-8859-1"?>
<!-- Generator: Adobe Illustrator 19.0.0, SVG Export Plug-In . SVG Version: 6.00 Build 0)  -->
<svg xmlns="http://www.w3.org/2000/svg" xmlns:xlink="http://www.w3.org/1999/xlink" version="1.1" id="Capa_1" x="0px" y="0px" viewBox="0 0 512 512" style="enable-background:new 0 0 512 512;" xml:space="preserve">
<g>
	<g>
		<g>
			<path d="M323.375,48.535c-12.096,0-21.938,9.896-21.938,22.061c0,12.165,9.841,22.061,21.938,22.061s21.938-9.896,21.938-22.061     C345.313,58.431,335.471,48.535,323.375,48.535z M323.375,77.656c-3.825,0-6.938-3.167-6.938-7.061     c0-3.894,3.112-7.061,6.938-7.061s6.938,3.167,6.938,7.061C330.313,74.489,327.2,77.656,323.375,77.656z"/>
			<path d="M323.375,165.02c-12.096,0-21.938,9.896-21.938,22.061c0,12.165,9.841,22.061,21.938,22.061s21.938-9.896,21.938-22.061     C345.313,174.916,335.471,165.02,323.375,165.02z M323.375,194.141c-3.825,0-6.938-3.167-6.938-7.061     c0-3.894,3.112-7.061,6.938-7.061s6.938,3.167,6.938,7.061C330.313,190.974,327.2,194.141,323.375,194.141z"/>
			<path d="M379,128.838c0-12.164-9.841-22.061-21.938-22.061s-21.938,9.896-21.938,22.061c0,12.165,9.841,22.061,21.938,22.061     S379,141.002,379,128.838z M350.125,128.838c0-3.894,3.112-7.061,6.938-7.061s6.938,3.167,6.938,7.061     c0,3.894-3.112,7.061-6.938,7.061S350.125,132.731,350.125,128.838z"/>
			<path d="M188.625,48.535c-12.096,0-21.938,9.896-21.938,22.061c0,12.165,9.841,22.061,21.938,22.061s21.938-9.896,21.938-22.061     C210.563,58.431,200.721,48.535,188.625,48.535z M188.625,77.656c-3.825,0-6.938-3.167-6.938-7.061     c0-3.894,3.112-7.061,6.938-7.061s6.938,3.167,6.938,7.061C195.563,74.489,192.45,77.656,188.625,77.656z"/>
			<path d="M188.625,209.141c12.096,0,21.938-9.896,21.938-22.061c0-12.165-9.841-22.061-21.938-22.061s-21.938,9.896-21.938,22.061     C166.687,199.245,176.529,209.141,188.625,209.141z M188.625,180.02c3.825,0,6.938,3.167,6.938,7.061s-3.112,7.061-6.938,7.061     s-6.938-3.167-6.938-7.061S184.8,180.02,188.625,180.02z"/>
			<path d="M154.938,106.777c-12.096,0-21.938,9.896-21.938,22.061c0,12.165,9.841,22.061,21.938,22.061     c12.097,0,21.938-9.896,21.938-22.061C176.876,116.673,167.034,106.777,154.938,106.777z M154.938,135.898     c-3.825,0-6.938-3.167-6.938-7.061s3.112-7.061,6.938-7.061c3.826,0,6.938,3.167,6.938,7.061S158.763,135.898,154.938,135.898z"/>
			<path d="M436.109,408.592L407.871,45.937c-0.288-14.307-16.377-25.847-47.834-34.307C332.151,4.13,295.203,0,256,0     c-23.284,0-45.562,1.428-66.215,4.244c-4.105,0.56-6.978,4.341-6.418,8.445c0.559,4.104,4.344,6.975,8.444,6.418     C211.795,16.382,233.391,15,256,15c37.925,0,73.489,3.947,100.141,11.115c29.056,7.815,36.734,16.639,36.734,20.213     c0,0.284,0.015,0.565,0.046,0.84l28.072,360.527h-46.605c-4.142,0-7.5,3.357-7.5,7.5s3.358,7.5,7.5,7.5h54.862     c6.479,0,11.75,5.345,11.75,11.914v50.477c0,6.569-5.271,11.914-11.75,11.914H82.75C76.271,497,71,491.655,71,485.085v-17.738     h217.725c4.142,0,7.5-3.357,7.5-7.5s-3.358-7.5-7.5-7.5H71v-17.738c0-6.569,5.271-11.914,11.75-11.914h264.928     c4.142,0,7.5-3.357,7.5-7.5s-3.358-7.5-7.5-7.5H91.009l28.075-360.573c0.028-0.261,0.042-0.526,0.042-0.795     c0-4.938,12.427-15.041,46.664-22.64c4.044-0.898,6.594-4.903,5.697-8.947c-0.898-4.045-4.908-6.593-8.947-5.697     c-26.484,5.879-58.023,17.048-58.411,36.915L75.895,408.59C64.455,411.644,56,422.152,56,434.609v50.477     C56,499.927,68,512,82.75,512h346.5C444,512,456,499.927,456,485.086v-50.477C456,422.154,447.546,411.647,436.109,408.592z"/>
			<path d="M256,48.535c-12.096,0-21.938,9.896-21.938,22.061c0,12.165,9.842,22.06,21.938,22.06s21.938-9.896,21.938-22.061     C277.938,58.43,268.096,48.535,256,48.535z M256,77.656c-3.825,0-6.938-3.167-6.938-7.061c0-3.894,3.112-7.061,6.938-7.061     s6.938,3.167,6.938,7.061C262.938,74.489,259.825,77.656,256,77.656z"/>
			<path d="M200.375,128.838c0,12.164,9.841,22.061,21.938,22.061c12.097,0,21.938-9.896,21.938-22.061     c0-12.165-9.841-22.061-21.938-22.061C210.216,106.777,200.375,116.674,200.375,128.838z M229.25,128.838     c0,3.894-3.112,7.061-6.938,7.061s-6.938-3.167-6.938-7.061c0-3.894,3.112-7.061,6.938-7.061S229.25,124.944,229.25,128.838z"/>
			<path d="M256,165.02c-12.096,0-21.938,9.896-21.938,22.061c0,12.165,9.841,22.061,21.938,22.061s21.938-9.896,21.938-22.061     C277.938,174.916,268.096,165.02,256,165.02z M256,194.141c-3.825,0-6.938-3.167-6.938-7.061c0-3.894,3.112-7.061,6.938-7.061     s6.938,3.167,6.938,7.061C262.938,190.974,259.825,194.141,256,194.141z"/>
			<path d="M267.75,128.838c0,12.164,9.841,22.061,21.938,22.061s21.938-9.896,21.938-22.061c0-12.165-9.841-22.061-21.938-22.061     S267.75,116.674,267.75,128.838z M296.625,128.838c0,3.894-3.112,7.061-6.938,7.061s-6.938-3.167-6.938-7.061     c0-3.894,3.112-7.061,6.938-7.061S296.625,124.944,296.625,128.838z"/>
		</g>
	</g>
</g>
<g>
</g>
<g>
</g>
<g>
</g>
<g>
</g>
<g>
</g>
<g>
</g>
<g>
</g>
<g>
</g>
<g>
</g>
<g>
</g>
<g>
</g>
<g>
</g>
<g>
</g>
<g>
</g>
<g>
</g>
</svg>
