<?xml version="1.0" encoding="iso-8859-1"?>
<!-- Generator: Adobe Illustrator 19.0.0, SVG Export Plug-In . SVG Version: 6.00 Build 0)  -->
<svg xmlns="http://www.w3.org/2000/svg" xmlns:xlink="http://www.w3.org/1999/xlink" version="1.1" id="Capa_1" x="0px" y="0px" viewBox="0 0 512 512" style="enable-background:new 0 0 512 512;" xml:space="preserve">
<g>
	<g>
		<g>
			<path d="M319.096,286.797c4.143,0,7.5-3.357,7.5-7.5s-3.357-7.5-7.5-7.5h-48.535c-4.143,0-7.5,3.357-7.5,7.5s3.357,7.5,7.5,7.5     H319.096z"/>
			<path d="M241.439,286.797c4.143,0,7.5-3.357,7.5-7.5s-3.357-7.5-7.5-7.5h-48.535c-4.143,0-7.5,3.357-7.5,7.5s3.357,7.5,7.5,7.5     H241.439z"/>
			<path d="M406.459,458.172h-11.842c-47.589,0-94.92,6.629-140.678,19.702C209.522,490.565,163.578,497,117.383,497h-65.23     c-1.217,0-2.207-0.99-2.207-2.207V286.797h36.182c4.143,0,7.5-3.357,7.5-7.5s-3.357-7.5-7.5-7.5H49.945v-62.656h56.081     c4.143,0,7.5-3.357,7.5-7.5s-3.357-7.5-7.5-7.5H41.475C26.877,194.141,15,182.265,15,167.666V98.261c0-4.143-3.357-7.5-7.5-7.5     S0,94.118,0,98.261v69.405c0,20.648,15.167,37.821,34.945,40.961v286.166c0,9.488,7.719,17.207,17.207,17.207h65.23     c47.589,0,94.92-6.629,140.678-19.703c44.417-12.69,90.361-19.125,136.557-19.125h11.842c4.143,0,7.5-3.357,7.5-7.5     S410.602,458.172,406.459,458.172z"/>
			<path d="M107.748,279.297c0,4.143,3.357,7.5,7.5,7.5h48.535c4.143,0,7.5-3.357,7.5-7.5s-3.357-7.5-7.5-7.5h-48.535     C111.105,271.797,107.748,275.154,107.748,279.297z"/>
			<path d="M470.525,0c-1.147,0-2.286,0.047-3.41,0.139C466.649,0.048,466.166,0,465.672,0H41.475C18.605,0,0,18.605,0,41.475     v22.811c0,4.143,3.357,7.501,7.5,7.501s7.5-3.357,7.5-7.5V41.475C15,26.877,26.877,15,41.475,15h397.148     c-5.974,7.188-9.572,16.419-9.572,26.475v126.191c0,10.056,3.597,19.287,9.572,26.475H137.089c-4.143,0-7.5,3.357-7.5,7.5     s3.357,7.5,7.5,7.5h324.966v62.656h-36.182c-4.143,0-7.5,3.357-7.5,7.5s3.357,7.5,7.5,7.5h36.182v169.168     c0,1.217-0.99,2.207-2.207,2.207h-26.937c-4.143,0-7.5,3.357-7.5,7.5s3.357,7.5,7.5,7.5h26.937     c9.488,0,17.207-7.719,17.207-17.207V208.627c19.778-3.14,34.945-20.313,34.945-40.961V41.475C512,18.605,493.395,0,470.525,0z      M497,167.666c0,14.599-11.877,26.475-26.475,26.475c-14.598,0-26.475-11.876-26.475-26.475V41.475     C444.05,26.877,455.927,15,470.525,15C485.123,15,497,26.877,497,41.475V167.666z"/>
			<path d="M396.752,286.797c4.143,0,7.5-3.357,7.5-7.5s-3.357-7.5-7.5-7.5h-48.535c-4.143,0-7.5,3.357-7.5,7.5s3.357,7.5,7.5,7.5     H396.752z"/>
			<path d="M470.525,48.535c-4.143,0-7.5,3.357-7.5,7.5v97.07c0,4.143,3.357,7.5,7.5,7.5s7.5-3.357,7.5-7.5v-97.07     C478.025,51.893,474.668,48.535,470.525,48.535z"/>
		</g>
	</g>
</g>
<g>
</g>
<g>
</g>
<g>
</g>
<g>
</g>
<g>
</g>
<g>
</g>
<g>
</g>
<g>
</g>
<g>
</g>
<g>
</g>
<g>
</g>
<g>
</g>
<g>
</g>
<g>
</g>
<g>
</g>
</svg>
