<?xml version="1.0" encoding="UTF-8" standalone="no"?>
<svg
   xmlns:dc="http://purl.org/dc/elements/1.1/"
   xmlns:cc="http://creativecommons.org/ns#"
   xmlns:rdf="http://www.w3.org/1999/02/22-rdf-syntax-ns#"
   xmlns:svg="http://www.w3.org/2000/svg"
   xmlns="http://www.w3.org/2000/svg"
   xmlns:sodipodi="http://sodipodi.sourceforge.net/DTD/sodipodi-0.dtd"
   xmlns:inkscape="http://www.inkscape.org/namespaces/inkscape"
   inkscape:version="1.0beta2 (2b71d25, 2019-12-03)"
   sodipodi:docname="007-sewing-tools-1.svg"
   xml:space="preserve"
   style="enable-background:new 0 0 512.002 512.002;"
   viewBox="0 0 512.002 512.002"
   y="0px"
   x="0px"
   id="Capa_1"
   version="1.1"><metadata
   id="metadata882"><rdf:RDF><cc:Work
       rdf:about=""><dc:format>image/svg+xml</dc:format><dc:type
         rdf:resource="http://purl.org/dc/dcmitype/StillImage" /></cc:Work></rdf:RDF></metadata><defs
   id="defs880" /><sodipodi:namedview
   inkscape:current-layer="Capa_1"
   inkscape:window-maximized="1"
   inkscape:window-y="23"
   inkscape:window-x="0"
   inkscape:cy="331.07519"
   inkscape:cx="-366.16499"
   inkscape:zoom="0.37772059"
   showgrid="false"
   id="namedview878"
   inkscape:window-height="755"
   inkscape:window-width="1280"
   inkscape:pageshadow="2"
   inkscape:pageopacity="0"
   guidetolerance="10"
   gridtolerance="10"
   objecttolerance="10"
   borderopacity="1"
   inkscape:document-rotation="0"
   bordercolor="#666666"
   pagecolor="#ffffff" />
<g
   id="g845">
	<g
   id="g843">
		<g
   id="g841">
			<path
   id="path833"
   d="M502.241,16.257c-7.362-9.097-17.826-14.783-29.464-16.01c-11.641-1.227-23.058,2.152-32.155,9.513     c-9.097,7.362-14.783,17.826-16.01,29.464s2.151,23.058,9.513,32.155c1.377,1.701,2.862,3.283,4.444,4.74l-4.048,47.953     c-0.348,4.127,2.716,7.756,6.843,8.104c4.126,0.364,7.756-2.714,8.104-6.842l3.414-40.443c3.408,1.263,6.999,2.107,10.707,2.498     c3.709,0.39,7.396,0.314,10.993-0.21l-24.838,196.268h-13.623l10.948-129.677c0.348-4.127-2.716-7.755-6.843-8.104     c-4.123-0.35-7.755,2.716-8.104,6.843l-11.054,130.938h-17.787v-33.269c0-18.66-7.815-35.531-20.344-47.508l2.589-123.653     c10.765-7.99,17.755-20.795,17.755-35.201c0-24.158-19.654-43.812-43.812-43.812s-43.812,19.654-43.812,43.812     c0,14.403,6.987,27.206,17.748,35.196l2.196,105.424H211.348c-7.383,0-14.703,1.246-21.621,3.649v-27.477h21.621     c30.898,0,56.035-25.137,56.035-56.035V56.038c0-30.898-25.137-56.035-56.035-56.035s-56.035,25.137-56.035,56.035v48.535     c0,11.922-9.699,21.621-21.621,21.621s-21.621-9.699-21.621-21.621V56.038c0-30.898-25.137-56.035-56.035-56.035     c-30.898,0-56.035,25.137-56.035,56.035v48.535c0,30.898,25.137,56.035,56.035,56.035h21.621v122.839H52.153     c-9.488,0-17.207,7.719-17.207,17.207v124.575c0,4.142,3.358,7.5,7.5,7.5c4.142,0,7.5-3.358,7.5-7.5V300.656     c0-1.217,0.99-2.207,2.207-2.207h145.825l14.658,29.317c2.934,5.866,8.831,9.511,15.391,9.511h55.95     c2.557,0,5.015-0.555,7.235-1.579v95.524c0,5.014,2.993,9.494,7.625,11.413c4.632,1.917,9.917,0.867,13.463-2.678l34.946-34.947     l34.947,34.947c3.546,3.545,8.831,4.596,13.463,2.677c4.632-1.919,7.625-6.399,7.625-11.413v-74.266c0-4.142-3.358-7.5-7.5-7.5     c-4.142,0-7.5,3.358-7.5,7.5v67.877L352.549,389.1c-1.406-1.407-3.314-2.197-5.303-2.197s-3.897,0.79-5.303,2.197l-35.732,35.732     V250.178c0-20.409-9.347-38.675-23.986-50.742h55.314c27.979,0,50.742,22.763,50.742,50.742v77.979c0,4.142,3.358,7.5,7.5,7.5     c4.142,0,7.5-3.358,7.5-7.5v-29.71h56.566c1.217,0,2.207,0.99,2.207,2.207v184.434c0,6.569-5.345,11.914-11.914,11.914H61.86     c-6.569,0-11.914-5.345-11.914-11.914v-30.739c0-4.142-3.358-7.5-7.5-7.5c-4.142,0-7.5,3.358-7.5,7.5v30.739     c0,14.84,12.074,26.914,26.914,26.914h388.279c14.84,0,26.914-12.074,26.914-26.914V300.655c0-7.777-5.186-14.365-12.281-16.489     l25.637-202.581c1.851-1.094,3.633-2.331,5.335-3.708c9.097-7.362,14.783-17.826,16.01-29.464     C512.982,36.775,509.603,25.355,502.241,16.257z M126.192,283.447H92.657v-45.183h33.535V283.447z M174.727,283.447h-33.535     v-45.183h33.535V283.447z M174.727,153.108v70.156h-41.035H92.657v-70.156c0-4.142-3.358-7.5-7.5-7.5H56.036     c-22.627,0-41.035-18.408-41.035-41.035V56.038c0-22.627,18.408-41.035,41.035-41.035c22.627,0,41.035,18.408,41.035,41.035     v48.535c0,20.193,16.428,36.621,36.621,36.621c20.193,0,36.621-16.428,36.621-36.621V56.038     c0-22.627,18.408-41.035,41.035-41.035c22.627,0,41.035,18.408,41.035,41.035v48.535c0,22.627-18.408,41.035-41.035,41.035     h-29.121C178.085,145.608,174.727,148.966,174.727,153.108z M291.211,310.604c-0.121,0.195-0.235,0.399-0.34,0.609l-4.921,9.842     c-0.376,0.752-1.133,1.22-1.974,1.22h-55.95c-0.842,0-1.599-0.468-1.975-1.22l-11.304-22.608h76.464V310.604z M291.212,250.179     v33.269h-33.535v-33.269c0-8.261,2.027-16.457,5.863-23.703c1.938-3.661,0.542-8.2-3.119-10.138     c-3.662-1.938-8.201-0.542-10.138,3.119c-4.976,9.4-7.606,20.023-7.606,30.721v33.269h-39.914c-0.104-0.002-0.209-0.002-0.313,0     h-12.723V204.26c6.723-3.164,14.128-4.824,21.621-4.824h29.121C268.448,199.436,291.211,222.199,291.212,250.179z      M368.155,192.011c-5.436-2.873-11.326-5.007-17.525-6.265l-2.072-99.493c3.489,0.897,7.146,1.375,10.91,1.375     c3.763,0,7.415-0.477,10.902-1.373L368.155,192.011z M359.469,72.628c-15.887,0-28.812-12.925-28.812-28.812     s12.925-28.812,28.812-28.812s28.812,12.925,28.812,28.812S375.355,72.628,359.469,72.628z M496.837,46.841     c-0.807,7.653-4.547,14.535-10.529,19.376s-13.492,7.062-21.146,6.256c-7.653-0.807-14.535-4.547-19.376-10.529     s-7.063-13.493-6.256-21.146c1.559-14.779,14.089-25.793,28.632-25.793c1.005,0,2.022,0.053,3.043,0.16     c7.653,0.807,14.535,4.547,19.376,10.529S497.644,39.186,496.837,46.841z" />
			<path
   id="path835"
   d="M56.036,33.978c-4.142,0-7.5,3.358-7.5,7.5v77.656c0,4.142,3.358,7.5,7.5,7.5c4.142,0,7.5-3.358,7.5-7.5V41.478     C63.536,37.336,60.178,33.978,56.036,33.978z" />
			<path
   id="path837"
   d="M218.848,119.134V41.478c0-4.142-3.358-7.5-7.5-7.5c-4.142,0-7.5,3.358-7.5,7.5v77.656c0,4.142,3.358,7.5,7.5,7.5     C215.49,126.634,218.848,123.276,218.848,119.134z" />
			<path
   id="path839"
   d="M133.692,169.876c-12.164,0-22.06,9.896-22.06,22.06s9.896,22.06,22.06,22.06s22.06-9.896,22.06-22.06     S145.856,169.876,133.692,169.876z M133.691,198.997c-3.894,0-7.061-3.167-7.061-7.061s3.167-7.061,7.061-7.061     s7.061,3.168,7.061,7.061S137.585,198.997,133.691,198.997z" />
		</g>
	</g>
</g>
<g
   id="g847">
</g>
<g
   id="g849">
</g>
<g
   id="g851">
</g>
<g
   id="g853">
</g>
<g
   id="g855">
</g>
<g
   id="g857">
</g>
<g
   id="g859">
</g>
<g
   id="g861">
</g>
<g
   id="g863">
</g>
<g
   id="g865">
</g>
<g
   id="g867">
</g>
<g
   id="g869">
</g>
<g
   id="g871">
</g>
<g
   id="g873">
</g>
<g
   id="g875">
</g>
<path
   inkscape:connector-curvature="0"
   d="m -409.05234,-39.757374 c -2.82686,-2.983368 -6.21663,-5.482131 -10.06522,-7.319661 -6.37537,-2.869479 -13.6764,-2.859962 -20.04482,0.02486 -12.30196,5.885476 -19.92139,18.527576 -19.37638,32.154025 0.2618,4.9699986 -1.5387,9.828827 -4.97737,13.426742 -3.58262,3.400045 -8.40972,5.168823 -13.34112,4.891744 -9.5432,-0.435967 -18.82918,3.165101 -25.58429,9.920206 -6.7551,6.755104 -10.35616,16.041078 -9.9202,25.58429 0.23254,4.965487 -1.56383,9.813164 -4.97737,13.42674 -3.61891,3.37311 -8.44148,5.15023 -13.38393,4.93456 -9.54322,-0.43596 -18.82919,3.1651 -25.58429,9.92021 -6.75511,6.7551 -10.35616,16.04107 -9.9202,25.58428 0.24116,4.94639 -1.5395,9.778558 -4.93456,13.383928 -3.61891,3.37311 -8.44147,5.15021 -13.38393,4.93455 -9.5432,-0.43596 -18.82918,3.16511 -25.58429,9.92021 -6.7551,6.7551 -10.35616,16.04108 -9.9202,25.58429 0.21566,4.94245 -1.56146,9.76502 -4.93456,13.38393 -3.60536,3.39506 -8.43753,5.17571 -13.38393,4.93456 -9.54321,-0.43596 -18.82918,3.16509 -25.58429,9.9202 -6.7551,6.75511 -10.35617,16.04108 -9.92021,25.58429 0.21566,4.94246 -1.56144,9.76502 -4.93455,13.38393 -3.6074,3.40083 -8.44442,5.18625 -13.39636,4.94699 -9.57641,-0.46348 -18.90288,3.13935 -25.68235,9.91882 -6.77947,6.77948 -10.3823,16.10594 -9.91882,25.68234 0.24975,4.92439 -1.51337,9.73896 -4.88622,13.3356 -3.61427,3.3624 -8.42891,5.13151 -13.36045,4.91107 -12.75722,-0.52187 -24.73826,6.11977 -31.05607,17.21501 -4.59518,7.97223 -4.51746,17.80657 0.2044,25.70444 1.14588,1.834 2.49892,3.53019 4.03133,5.05609 7.08006,6.51782 16.22603,10.34127 25.8384,10.80133 4.99528,-0.13565 9.83722,1.72572 13.45574,5.1721 3.61856,3.44635 5.71478,8.19324 5.82259,13.1892 -0.19397,9.47435 3.48459,18.61833 10.18538,25.31912 6.70079,6.70079 15.84476,10.37934 25.31912,10.18538 4.95874,-0.29364 9.8065,1.54772 13.31901,5.06023 3.5125,3.5125 5.35386,8.36026 5.06023,13.31901 -0.20128,9.47651 3.47468,18.625 10.17709,25.32741 6.70241,6.70241 15.84953,10.37699 25.32603,10.17571 4.94494,-0.30196 9.78275,1.53226 13.28587,5.03538 3.50312,3.50311 5.33595,8.33954 5.03399,13.28448 -0.20129,9.4765 3.47468,18.625 10.1771,25.32741 6.70241,6.70241 15.84951,10.37699 25.32602,10.17571 4.94495,-0.30196 9.78275,1.53225 13.28587,5.03537 3.50311,3.50311 5.33595,8.33955 5.034,13.28449 -0.20129,9.47651 3.47468,18.625 10.17709,25.32741 6.7024,6.7024 15.84952,10.377 25.32602,10.1757 4.94024,-0.27246 9.7638,1.57131 13.26239,5.0699 3.49859,3.49859 5.34236,8.32216 5.0699,13.2624 -0.23397,9.51163 3.44103,18.70184 10.1688,25.42961 6.72778,6.72777 15.91937,10.40416 25.43099,10.17018 4.91985,-0.26219 9.71922,1.57921 13.20301,5.06299 3.48379,3.4838 5.32381,8.28179 5.06161,13.20163 -0.5456,13.63636 7.08296,26.28774 19.39849,32.16784 6.36245,2.87 13.65162,2.87306 20.01581,0.007 12.30168,-5.88813 19.91663,-18.53511 19.3681,-32.16231 -0.37376,-4.9589 1.43469,-9.83435 4.95112,-13.35078 3.51642,-3.51642 8.39188,-5.32488 13.35079,-4.95113 9.54321,0.43597 18.82918,-3.16234 25.58429,-9.91745 6.7551,-6.7551 10.35478,-16.04244 9.91882,-25.58566 -0.40093,-4.98669 1.40673,-9.89753 4.94423,-13.43503 3.53749,-3.53749 8.44833,-5.34515 13.43502,-4.94422 9.54322,0.43596 18.83057,-3.16373 25.58567,-9.91883 6.7551,-6.7551 10.3548,-16.04246 9.91883,-25.58567 -0.23812,-4.95985 1.55743,-9.80206 4.97184,-13.4074 3.61892,-3.37309 8.44148,-5.15023 13.38393,-4.93456 9.54322,0.43596 18.82918,-3.16511 25.58429,-9.92021 6.7551,-6.75511 10.35618,-16.04108 9.92021,-25.58429 -0.21566,-4.94245 1.56145,-9.76501 4.93455,-13.38392 3.60539,-3.39504 8.43753,-5.17573 13.38394,-4.93456 9.54321,0.43596 18.82917,-3.1651 25.58427,-9.92021 6.75511,-6.7551 10.35617,-16.04107 9.92021,-25.58428 -0.21566,-4.94245 1.56146,-9.76503 4.93456,-13.38393 3.6084,-3.4083 8.45099,-5.19878 13.40879,-4.95942 9.54309,0.32199 18.80344,-3.27013 25.63262,-9.94369 6.64303,-6.85453 10.23369,-16.10369 9.95612,-25.64505 -0.24975,-4.92438 1.51339,-9.73894 4.88622,-13.33559 3.61427,-3.3624 8.4289,-5.13152 13.36045,-4.91107 13.6455,0.54268 26.30131,-7.09951 32.17336,-19.42887 2.86964,-6.35082 2.86656,-13.63083 -0.007,-19.97991 -5.87032,-12.32521 -18.51974,-19.96526 -32.16093,-19.42749 -4.949,0.25823 -9.78768,-1.52759 -13.38394,-4.93731 -3.40004,-3.58262 -5.1702,-8.40834 -4.89312,-13.33974 0.1964,-9.47507 -3.48129,-18.62056 -10.18261,-25.32187 -6.70134,-6.70135 -15.84681,-10.37902 -25.32188,-10.18262 -4.95799,0.29083 -9.80302,-1.55252 -13.31488,-5.06438 -3.51186,-3.51186 -5.35521,-8.35688 -5.06437,-13.31487 0.20128,-9.47651 -3.47468,-18.625 -10.17709,-25.32741 -6.70241,-6.70241 -15.85091,-10.37837 -25.32741,-10.17709 -4.94569,0.30476 -9.78348,-1.52746 -13.28725,-5.03123 -3.50376,-3.50376 -5.336,-8.34157 -5.03123,-13.28725 0.20129,-9.4765 -3.47469,-18.625 -10.1771,-25.32741 -6.70241,-6.70241 -15.8509,-10.37837 -25.3274,-10.17709 -4.94569,0.30476 -9.78348,-1.52746 -13.28725,-5.03123 -3.50377,-3.50377 -5.336,-8.34157 -5.03123,-13.28726 0.20128,-9.4765 -3.47469,-18.62499 -10.17709,-25.32739 -6.70242,-6.70242 -15.85091,-10.37839 -25.3274,-10.1771 -4.94725,0.27471 -9.77673,-1.57041 -13.28036,-5.07404 -3.50363,-3.503627 -5.34875,-8.333103 -5.07404,-13.280347 0.23892,-9.513076 -3.4344,-18.709012 -10.16328,-25.437889 -6.72887,-6.728871 -15.92482,-10.402208 -25.43789,-10.163283 -4.91984,0.262188 -9.71922,-1.57921 -13.20301,-5.062998 -3.48379,-3.483787 -5.3238,-8.2817834 -5.06161,-13.201627 0.3751,-9.374988 -3.11417,-18.284761 -9.33326,-24.84817 z m 10.09975,94.400134 c 3.33248,3.33247 3.33247,8.7353 0,12.06777 l -12.06916,12.06916 c -3.33247,3.33247 -8.73529,3.33247 -12.06776,0 -3.33248,-3.33248 -3.33248,-8.7353 -10e-6,-12.06778 l 12.06915,-12.06915 c 3.33248,-3.33247 8.73531,-3.33247 12.06778,0 z m 108.61271,108.6127 c 3.33247,3.33248 3.33247,8.7353 -1e-5,12.06778 l -12.06915,12.06915 c -3.33247,3.33248 -8.73529,3.33248 -12.06777,0 -3.33247,-3.33247 -3.33247,-8.73529 0,-12.06777 l 12.06916,-12.06915 c 3.33247,-3.33247 8.7353,-3.33248 12.06777,-1e-5 z m 108.61133,108.61133 c 3.33247,3.33247 3.33246,8.7353 -10e-6,12.06777 l -12.06915,12.06916 c -3.33248,3.33247 -8.7353,3.33247 -12.06777,0 -3.33248,-3.33248 -3.33248,-8.7353 0,-12.06777 l 12.06915,-12.06915 c 3.33248,-3.33248 8.7353,-3.33248 12.06778,-1e-5 z m -265.49651,-217.22265 12.06777,12.06777 c 3.33248,3.33248 3.33248,8.7353 0,12.06777 -3.33247,3.33247 -8.7353,3.33248 -12.06777,1e-5 l -12.06778,-12.06778 c -3.33247,-3.33247 -3.33246,-8.7353 1e-5,-12.06777 3.33248,-3.33248 8.73529,-3.33248 12.06777,0 z m 36.2047,36.2047 12.06777,12.06777 c 3.33247,3.33247 3.33248,8.7353 0,12.06777 -3.33247,3.33248 -8.7353,3.33248 -12.06778,0 l -12.06776,-12.06777 c -3.33248,-3.33247 -3.33386,-8.73668 -0.001,-12.06916 3.33247,-3.33247 8.73668,-3.33108 12.06915,0.001 z m 72.40662,72.40662 12.06778,12.06778 c 3.33247,3.33247 3.33386,8.73668 10e-4,12.06915 -3.33247,3.33248 -8.73668,3.3311 -12.06916,-0.001 l -12.06777,-12.06777 c -3.33247,-3.33248 -3.33247,-8.7353 1e-5,-12.06778 3.33247,-3.33247 8.73529,-3.33247 12.06776,0 z m 36.20471,36.20471 12.06776,12.06776 c 3.33248,3.33248 3.33248,8.7353 1e-5,12.06778 -3.33248,3.33246 -8.73531,3.33247 -12.06778,0 l -12.06777,-12.06777 c -3.33247,-3.33247 -3.33247,-8.73531 0,-12.06778 3.33248,-3.33248 8.7353,-3.33247 12.06778,1e-5 z m 72.40801,72.40801 12.06776,12.06776 c 3.33248,3.33248 3.33248,8.7353 1e-5,12.06778 -3.33247,3.33247 -8.73531,3.33247 -12.06778,0 l -12.06777,-12.06777 c -3.33247,-3.33247 -3.33385,-8.73669 -10e-4,-12.06916 3.33248,-3.33247 8.73668,-3.33109 12.06916,0.001 z m 36.20331,36.20331 12.06777,12.06777 c 3.33248,3.33248 3.33247,8.73529 0,12.06777 -3.33247,3.33247 -8.73529,3.33248 -12.06777,0 l -12.06777,-12.06776 c -3.33248,-3.33248 -3.33248,-8.73531 0,-12.06779 3.33247,-3.33247 8.7353,-3.33246 12.06777,10e-6 z M -435.15729,90.84746 c 3.33248,3.33248 3.33248,8.73529 0,12.06777 l -12.06777,12.06777 c -3.33248,3.33248 -8.73529,3.33248 -12.06777,0 -3.33247,-3.33247 -3.33248,-8.7353 -1e-5,-12.06777 l 12.06778,-12.06778 c 3.33247,-3.33247 8.7353,-3.33246 12.06777,1e-5 z m 108.61271,108.61271 c 3.33247,3.33247 3.33247,8.73529 0,12.06776 l -12.06778,12.06778 c -3.33247,3.33247 -8.73529,3.33247 -12.06776,0 -3.33248,-3.33248 -3.33248,-8.7353 0,-12.06777 l 12.06777,-12.06777 c 3.33247,-3.33248 8.73529,-3.33248 12.06777,0 z m 108.61132,108.61132 c 3.33248,3.33248 3.33248,8.7353 0,12.06777 l -12.06777,12.06777 c -3.33247,3.33248 -8.73529,3.33248 -12.06777,0 -3.33247,-3.33247 -3.33247,-8.73529 0,-12.06776 l 12.06778,-12.06778 c 3.33247,-3.33247 8.73529,-3.33247 12.06776,0 z M -398.95259,163.25547 c 3.33247,3.33248 3.33247,8.73529 0,12.06777 l -12.06778,12.06777 c -3.33247,3.33248 -8.73529,3.33248 -12.06776,0 -3.33248,-3.33247 -3.33248,-8.73529 0,-12.06776 l 12.06777,-12.06778 c 3.33247,-3.33247 8.73529,-3.33247 12.06777,0 z m 108.61132,108.61133 c 3.33248,3.33247 3.33248,8.73529 0,12.06776 l -12.06777,12.06778 c -3.33247,3.33247 -8.73529,3.33247 -12.06777,0 -3.33247,-3.33248 -3.33248,-8.7353 -10e-6,-12.06778 l 12.06778,-12.06777 c 3.33247,-3.33247 8.7353,-3.33247 12.06777,1e-5 z m -156.88241,-108.61133 12.06777,12.06777 c 3.33248,3.33247 3.33248,8.7353 1e-5,12.06777 -3.33248,3.33248 -8.7353,3.33247 -12.06778,0 l -12.06776,-12.06777 c -3.33248,-3.33248 -3.33248,-8.7353 -10e-6,-12.06778 3.33247,-3.33247 8.7353,-3.33246 12.06777,1e-5 z m 36.20331,36.20331 12.06778,12.06777 c 3.33247,3.33248 3.33247,8.7353 0,12.06777 -3.33248,3.33248 -8.7353,3.33248 -12.06777,0 l -12.06777,-12.06777 c -3.33248,-3.33248 -3.33248,-8.7353 0,-12.06777 3.33247,-3.33247 8.73529,-3.33247 12.06776,0 z m 72.40802,72.40802 12.06777,12.06776 c 3.33247,3.33248 3.33247,8.7353 0,12.06777 -3.33248,3.33248 -8.7353,3.33248 -12.06777,0 l -12.06777,-12.06777 c -3.33247,-3.33247 -3.33248,-8.7353 0,-12.06777 3.33247,-3.33247 8.7353,-3.33247 12.06777,1e-5 z m 36.20331,36.20331 12.06777,12.06777 c 3.33248,3.33247 3.33386,8.73668 0.001,12.06915 -3.33247,3.33248 -8.73668,3.33109 -12.06915,-10e-4 l -12.06739,-12.06816 c -3.33247,-3.33247 -3.33247,-8.73529 0,-12.06776 3.33248,-3.33248 8.7353,-3.33248 12.06777,0 z M -435.1559,199.45878 c 3.33247,3.33247 3.33247,8.7353 -1e-5,12.06777 l -12.06915,12.06916 c -3.33248,3.33247 -8.73529,3.33247 -12.06777,0 -3.33247,-3.33248 -3.33247,-8.7353 0,-12.06777 l 12.06915,-12.06915 c 3.33248,-3.33248 8.7353,-3.33248 12.06778,-1e-5 z m 108.61132,108.61133 c 3.33248,3.33247 3.33247,8.7353 0,12.06777 l -12.06916,12.06915 c -3.33247,3.33248 -8.73529,3.33248 -12.06776,0 -3.33248,-3.33247 -3.33248,-8.7353 -10e-6,-12.06777 l 12.06915,-12.06915 c 3.33248,-3.33248 8.73531,-3.33248 12.06778,0 z M -507.5653,163.25547 c 3.33248,3.33248 3.33248,8.73529 0,12.06777 l -12.06777,12.06777 c -3.33248,3.33248 -8.73529,3.33248 -12.06777,0 -3.33247,-3.33247 -3.33248,-8.7353 -10e-6,-12.06777 l 12.06778,-12.06778 c 3.33247,-3.33247 8.7353,-3.33246 12.06777,1e-5 z m 108.61271,108.61271 c 3.33247,3.33247 3.33247,8.73529 0,12.06776 l -12.06778,12.06778 c -3.33247,3.33247 -8.73529,3.33247 -12.06776,0 -3.33248,-3.33248 -3.33248,-8.7353 0,-12.06777 l 12.06777,-12.06777 c 3.33247,-3.33248 8.73529,-3.33248 12.06777,0 z m 108.61132,108.61132 c 3.33248,3.33248 3.33248,8.7353 0,12.06777 l -12.06777,12.06777 c -3.33247,3.33248 -8.73529,3.33248 -12.06777,0 -3.33247,-3.33247 -3.33247,-8.73529 0,-12.06776 l 12.06778,-12.06778 c 3.33247,-3.33247 8.73529,-3.33247 12.06776,0 z m -265.49512,-217.22404 12.06778,12.06778 c 3.33247,3.33247 3.33247,8.73529 0,12.06777 -3.33248,3.33247 -8.7353,3.33248 -12.06778,0 l -12.06777,-12.06777 c -3.33248,-3.33248 -3.33247,-8.7353 1e-5,-12.06778 3.33247,-3.33247 8.73529,-3.33247 12.06776,0 z m 36.2047,36.20471 12.06777,12.06776 c 3.33248,3.33248 3.33248,8.7353 10e-6,12.06778 -3.33248,3.33247 -8.73531,3.33247 -12.06778,0 l -12.06777,-12.06777 c -3.33247,-3.33247 -3.33385,-8.73669 -10e-4,-12.06916 3.33248,-3.33247 8.73668,-3.33109 12.06915,0.001 z m 72.40663,72.40662 12.06777,12.06777 c 3.33248,3.33248 3.33386,8.73668 10e-4,12.06916 -3.33248,3.33247 -8.73669,3.33109 -12.06916,-10e-4 l -12.06778,-12.06778 c -3.33247,-3.33247 -3.33246,-8.7353 10e-6,-12.06777 3.33248,-3.33247 8.73529,-3.33247 12.06777,0 z m 36.2047,36.2047 12.06777,12.06777 c 3.33247,3.33247 3.33248,8.7353 0,12.06777 -3.33248,3.33247 -8.7353,3.33248 -12.06778,0 l -12.06776,-12.06776 c -3.33248,-3.33248 -3.33248,-8.73531 0,-12.06779 3.33247,-3.33247 8.7353,-3.33246 12.06777,10e-6 z m 72.40801,72.40801 12.06777,12.06777 c 3.33247,3.33247 3.33248,8.7353 0,12.06777 -3.33247,3.33248 -8.7353,3.33248 -12.06778,0 l -12.06776,-12.06776 c -3.33248,-3.33248 -3.33386,-8.73669 -0.001,-12.06916 3.33247,-3.33248 8.73668,-3.33109 12.06915,0.001 z m 36.20332,36.20332 12.06776,12.06776 c 3.33248,3.33249 3.33248,8.7353 0,12.06777 -3.33247,3.33248 -8.73529,3.33249 -12.06777,10e-6 l -12.06777,-12.06777 c -3.33247,-3.33247 -3.33247,-8.73531 0,-12.06778 3.33248,-3.33247 8.7353,-3.33247 12.06778,10e-6 z M -543.76861,199.45879 c 3.33247,3.33247 3.33247,8.73529 0,12.06776 l -12.06778,12.06778 c -3.33247,3.33247 -8.73529,3.33247 -12.06776,0 -3.33248,-3.33248 -3.33249,-8.7353 -1e-5,-12.06778 l 12.06777,-12.06777 c 3.33248,-3.33247 8.7353,-3.33247 12.06778,1e-5 z m 108.6127,108.6127 c 3.33248,3.33248 3.33248,8.7353 0,12.06777 l -12.06777,12.06777 c -3.33248,3.33248 -8.7353,3.33248 -12.06777,0 -3.33247,-3.33247 -3.33247,-8.73529 0,-12.06776 l 12.06777,-12.06778 c 3.33248,-3.33247 8.7353,-3.33247 12.06777,0 z m 108.61133,108.61133 c 3.33247,3.33247 3.33247,8.73529 0,12.06776 l -12.06778,12.06778 c -3.33247,3.33247 -8.73529,3.33247 -12.06776,0 -3.33248,-3.33247 -3.33248,-8.73529 0,-12.06777 l 12.06777,-12.06777 c 3.33247,-3.33248 8.73529,-3.33248 12.06777,0 z M -507.56392,271.8668 c 3.33248,3.33247 3.33248,8.73529 0,12.06776 l -12.06777,12.06777 c -3.33247,3.33248 -8.7353,3.33248 -12.06777,1e-5 -3.33247,-3.33248 -3.33247,-8.7353 1e-5,-12.06778 l 12.06776,-12.06776 c 3.33248,-3.33248 8.7353,-3.33248 12.06777,0 z m 108.61133,108.61132 c 3.33247,3.33248 3.33247,8.7353 0,12.06777 l -12.06777,12.06777 c -3.33247,3.33247 -8.7353,3.33248 -12.06777,0 -3.33248,-3.33247 -3.33248,-8.7353 0,-12.06778 l 12.06776,-12.06776 c 3.33248,-3.33248 8.7353,-3.33247 12.06778,0 z M -555.835,271.8668 l 12.06777,12.06776 c 3.33247,3.33248 3.3311,8.73668 -10e-4,12.06916 -3.33247,3.33247 -8.7353,3.33247 -12.06778,0 l -12.06776,-12.06777 c -3.33248,-3.33247 -3.33248,-8.73531 0,-12.06778 3.33247,-3.33247 8.73667,-3.33385 12.06915,-0.001 z m 36.20331,36.20331 12.06777,12.06777 c 3.33248,3.33247 3.3311,8.73667 -10e-4,12.06915 -3.33247,3.33247 -8.7353,3.33248 -12.06777,0 l -12.06778,-12.06777 c -3.33247,-3.33247 -3.33246,-8.7353 10e-6,-12.06778 3.33248,-3.33247 8.73667,-3.33385 12.06915,-0.001 z m 72.40801,72.40801 12.06777,12.06777 c 3.33248,3.33247 3.3311,8.73667 -10e-4,12.06915 -3.33247,3.33247 -8.7353,3.33248 -12.06777,0 l -12.06777,-12.06776 c -3.33247,-3.33248 -3.33247,-8.73531 0,-12.06778 3.33248,-3.33248 8.73668,-3.33385 12.06915,-10e-4 z m 36.20331,36.20331 12.06778,12.06778 c 3.33247,3.33247 3.33248,8.73805 0,12.07053 -3.33247,3.33247 -8.73668,3.33109 -12.06916,-0.001 l -12.06777,-12.06778 c -3.33247,-3.33247 -3.33247,-8.7353 10e-6,-12.06777 3.33247,-3.33247 8.73667,-3.33385 12.06914,-0.001 z M -543.76861,308.07149 c 3.33247,3.33248 3.33247,8.7353 0,12.06777 l -12.06778,12.06777 c -3.33248,3.33248 -8.73529,3.33248 -12.06776,0 -3.33248,-3.33247 -3.33249,-8.73528 0,-12.06776 l 12.06777,-12.06778 c 3.33247,-3.33247 8.73529,-3.33247 12.06777,0 z m 108.61132,108.61133 c 3.33248,3.33247 3.33248,8.73529 0,12.06776 l -12.06777,12.06778 c -3.33248,3.33248 -8.73529,3.33247 -12.06777,0 -3.33247,-3.33247 -3.33249,-8.73529 -1e-5,-12.06778 l 12.06778,-12.06777 c 3.33247,-3.33247 8.7353,-3.33247 12.06777,10e-6 z M -616.17662,271.8668 c 3.33247,3.33247 3.33247,8.73529 0,12.06776 l -12.06778,12.06778 c -3.33248,3.33248 -8.73529,3.33247 -12.06776,0 -3.33248,-3.33248 -3.33249,-8.73529 -1e-5,-12.06778 l 12.06777,-12.06777 c 3.33248,-3.33247 8.7353,-3.33247 12.06778,1e-5 z m 108.6127,108.6127 c 3.33248,3.33248 3.33248,8.7353 0,12.06777 l -12.06777,12.06777 c -3.33248,3.33248 -8.7353,3.33248 -12.06777,0 -3.33247,-3.33247 -3.33248,-8.73528 0,-12.06776 l 12.06777,-12.06778 c 3.33248,-3.33247 8.7353,-3.33247 12.06777,0 z m 108.61133,108.61133 c 3.33247,3.33247 3.33247,8.73529 0,12.06777 l -12.06778,12.06777 c -3.33248,3.33248 -8.73529,3.33247 -12.06776,0 -3.33248,-3.33247 -3.33248,-8.73529 0,-12.06777 l 12.06777,-12.06777 c 3.33247,-3.33248 8.73529,-3.33248 12.06777,0 z m -265.49512,-217.22404 12.06777,12.06777 c 3.33248,3.33248 3.33248,8.7353 0,12.06777 -3.33247,3.33248 -8.7353,3.33248 -12.06777,1e-5 l -12.06778,-12.06778 c -3.33247,-3.33247 -3.33246,-8.7353 10e-6,-12.06777 3.33247,-3.33247 8.73529,-3.33247 12.06777,0 z m 36.2047,36.2047 12.06777,12.06777 c 3.33247,3.33247 3.33248,8.7353 0,12.06777 -3.33247,3.33248 -8.7353,3.33248 -12.06778,0 l -12.06777,-12.06776 c -3.33247,-3.33248 -3.33385,-8.73669 -10e-4,-12.06916 3.33247,-3.33248 8.73667,-3.33109 12.06915,10e-4 z m 72.40662,72.40663 12.06778,12.06777 c 3.33247,3.33247 3.33386,8.73668 10e-4,12.06915 -3.33247,3.33248 -8.73668,3.3311 -12.06916,-0.001 l -12.06739,-12.06815 c -3.33248,-3.33247 -3.33247,-8.7353 1e-5,-12.06777 3.33247,-3.33248 8.73529,-3.33248 12.06776,0 z m 36.2047,36.2047 12.06777,12.06776 c 3.33248,3.33248 3.33248,8.73531 10e-6,12.06778 -3.33248,3.33247 -8.73531,3.33247 -12.06778,0 l -12.06777,-12.06777 c -3.33247,-3.33247 -3.33247,-8.73531 0,-12.06778 3.33247,-3.33247 8.7353,-3.33247 12.06777,10e-6 z m 72.40801,72.40801 12.06777,12.06777 c 3.33248,3.33247 3.33248,8.7353 1e-5,12.06777 -3.33248,3.33247 -8.73531,3.33247 -12.06778,0 l -12.06777,-12.06777 c -3.33247,-3.33247 -3.33385,-8.73668 -10e-4,-12.06916 3.33248,-3.33247 8.73668,-3.33109 12.06915,10e-4 z m 36.20332,36.20331 12.06777,12.06777 c 3.33248,3.33248 3.33247,8.73529 0,12.06777 -3.33248,3.33247 -8.7353,3.33249 -12.06778,0 l -12.06776,-12.06776 c -3.33248,-3.33248 -3.33248,-8.73531 0,-12.06778 3.33247,-3.33248 8.7353,-3.33247 12.06777,0 z M -652.37994,308.07011 c 3.33248,3.33248 3.33248,8.7353 0,12.06777 l -12.06777,12.06777 c -3.33248,3.33248 -8.7353,3.33248 -12.06777,0 -3.33247,-3.33247 -3.33249,-8.73529 0,-12.06778 l 12.06777,-12.06776 c 3.33247,-3.33248 8.7353,-3.33247 12.06777,0 z m 108.61271,108.61271 c 3.33247,3.33247 3.33247,8.73529 0,12.06776 l -12.06777,12.06777 c -3.33248,3.33248 -8.7353,3.33248 -12.06778,10e-6 -3.33247,-3.33247 -3.33248,-8.73529 10e-6,-12.06778 l 12.06777,-12.06776 c 3.33247,-3.33248 8.73529,-3.33248 12.06777,0 z m 108.61132,108.61132 c 3.33248,3.33248 3.33248,8.7353 0,12.06777 l -12.06777,12.06777 c -3.33248,3.33248 -8.7353,3.33248 -12.06777,0 -3.33247,-3.33247 -3.33248,-8.73528 10e-6,-12.06777 l 12.06776,-12.06777 c 3.33248,-3.33247 8.7353,-3.33247 12.06777,0 z"
   style="fill:#ff0000;fill-rule:nonzero;stroke-width:8.53333"
   id="Shape" /><path
   inkscape:connector-curvature="0"
   id="path1162"
   d="m -743.72312,1043.6479 c -7.06073,6.4657 -11.08149,15.5995 -11.08149,25.1734 0,9.5738 4.02076,18.7076 11.08149,25.1733 3.66091,3.3146 5.81707,7.9749 5.97333,12.9109 -0.17382,4.9441 -2.32599,9.6113 -5.97333,12.9536 -7.05634,6.4398 -11.07674,15.5519 -11.07674,25.1051 0,9.5532 4.0204,18.6653 11.07674,25.1051 3.80094,3.2297 5.99159,7.9658 5.99159,12.9536 0,4.9878 -2.19065,9.7239 -5.99159,12.9536 -7.05634,6.4398 -11.07674,15.5519 -11.07674,25.105 0,9.5532 4.0204,18.6653 11.07674,25.1051 3.64734,3.3424 5.79953,8.0095 5.97333,12.9536 -0.14873,4.9501 -2.30516,9.6265 -5.97333,12.9536 -7.05416,6.4729 -11.06562,15.6107 -11.0559,25.1846 0.009,9.5739 4.03979,18.7036 11.1071,25.1621 3.64471,3.3178 5.78267,7.9757 5.92213,12.9024 -0.18073,4.9277 -2.33288,9.5764 -5.97333,12.9024 -7.06976,6.4481 -11.0982,15.5747 -11.0982,25.1435 0,9.5687 4.02844,18.6953 11.0982,25.1434 5.25021,4.5107 7.21825,11.7673 4.9664,18.3126 -0.72345,1.8907 -2.21528,3.3856 -4.10453,4.113 -6.56091,2.2465 -13.82851,0.2691 -18.34667,-4.992 -6.56101,-6.8387 -15.62796,-10.705 -25.10507,-10.705 -9.47711,0 -18.54405,3.8663 -25.10506,10.705 -3.29022,3.6947 -8.00198,5.808 -12.94933,5.808 -4.94736,0 -9.65912,-2.1133 -12.94934,-5.808 -6.57495,-6.8485 -15.65823,-10.7198 -25.152,-10.7198 -9.49377,0 -18.57704,3.8713 -25.15199,10.7198 -3.28163,3.7127 -7.99852,5.8388 -12.9536,5.8388 -4.95507,0 -9.67197,-2.1261 -12.9536,-5.8388 -6.55856,-6.8432 -15.62643,-10.7125 -25.10506,-10.7125 -9.47864,0 -18.5465,3.8693 -25.10507,10.7125 -3.29465,3.6901 -8.00673,5.7999 -12.9536,5.7999 -4.94688,0 -9.65895,-2.1098 -12.9536,-5.7999 -6.55857,-6.8432 -15.62646,-10.7125 -25.10506,-10.7125 -9.4787,0 -18.5465,3.8693 -25.1051,10.7125 -3.28,3.7123 -7.9956,5.8383 -12.9493,5.8383 -4.9538,0 -9.6693,-2.126 -12.9493,-5.8383 -6.5809,-6.8598 -15.6783,-10.7337 -25.1843,-10.724 -9.506,0.01 -18.5955,3.902 -25.1624,10.7752 -3.2958,3.6508 -7.984,5.7344 -12.9024,5.7344 -4.9184,0 -9.6066,-2.0836 -12.9024,-5.7344 -13.4997,-13.9178 -32.9557,-14.1824 -49.5701,-0.6826 -4.6257,4.7305 -11.1348,7.1279 -17.7238,6.528 -2.8832,-0.8588 -5.0849,-3.1972 -5.7685,-6.127 -1.637,-6.288 0.4253,-12.9609 5.3248,-17.2288 6.931,-6.5306 10.9312,-15.5834 11.0933,-25.105 -0.1239,-9.5301 -4.1304,-18.5971 -11.0933,-25.1051 -3.6474,-3.3424 -5.7995,-8.0095 -5.9733,-12.9536 0.1441,-4.9487 2.3015,-9.6242 5.9733,-12.9451 6.9429,-6.5612 10.9429,-15.6475 11.0933,-25.1989 -0.1621,-9.5217 -4.1623,-18.5745 -11.0933,-25.1051 -3.6682,-3.3271 -5.8246,-8.0035 -5.9733,-12.9536 0.1692,-4.9501 2.3218,-9.6242 5.9733,-12.9706 6.9268,-6.5266 10.9267,-15.5723 11.0933,-25.0881 -0.1621,-9.5216 -4.1623,-18.5744 -11.0933,-25.105 -3.801,-3.2297 -5.9916,-7.9658 -5.9916,-12.9536 0,-4.9878 2.1906,-9.7239 5.9916,-12.9536 6.931,-6.5306 10.9312,-15.5834 11.0933,-25.1051 -0.1666,-9.5157 -4.1665,-18.5615 -11.0933,-25.088 -3.6515,-3.3464 -5.8041,-8.0206 -5.9733,-12.9707 0.147,-4.9479 2.304,-9.6223 5.9733,-12.945 6.9299,-6.535 10.9297,-15.5898 11.0933,-25.1136 -0.1409,-9.5659 -4.1415,-18.669 -11.0933,-25.2416 -3.6637,-3.309 -5.8207,-7.968 -5.9733,-12.9024 0.1807,-4.9277 2.3328,-9.5764 5.9733,-12.9024 6.9544,-6.4999 10.9601,-15.5528 11.0933,-25.07096 -0.1146,-9.56421 -4.1201,-18.66911 -11.0933,-25.216 -5.2497,-4.50714 -7.2209,-11.75957 -4.9749,-18.304 0.7252,-1.89746 2.2241,-3.39635 4.1216,-4.1216 1.7335,-0.64856 3.5678,-0.98653 5.4186,-0.9984 4.9376,0.14939 9.6006,2.30674 12.911,5.97333 6.5585,6.84323 15.6264,10.71257 25.105,10.71257 9.4787,0 18.5465,-3.86934 25.1051,-10.71257 3.2902,-3.69469 8.002,-5.80799 12.9493,-5.80799 4.9474,0 9.6591,2.1133 12.9494,5.80799 6.5799,6.85533 15.6711,10.73063 25.1733,10.73063 9.5022,0 18.5934,-3.8753 25.1733,-10.73063 3.2815,-3.70973 7.9965,-5.83392 12.9494,-5.83392 4.9528,0 9.6678,2.12419 12.9493,5.83392 6.5586,6.84323 15.6264,10.71257 25.1051,10.71257 9.4786,0 18.54646,-3.86934 25.10503,-10.71257 3.29465,-3.6901 8.00672,-5.79991 12.9536,-5.79991 4.94687,0 9.65894,2.10981 12.9536,5.79991 6.55856,6.84323 15.62642,10.71257 25.10506,10.71257 9.47864,0 18.5465,-3.86934 25.10507,-10.71257 3.28309,-3.71011 7.99944,-5.8344 12.9536,-5.8344 4.95415,0 9.67051,2.12429 12.9536,5.8344 6.58084,6.85981 15.67825,10.73369 25.18425,10.72402 9.50602,-0.01 18.59554,-3.90204 25.16241,-10.77522 3.29442,-3.65321 7.98312,-5.7386 12.9024,-5.7386 4.91927,0 9.60797,2.08539 12.90239,5.7386 6.48293,6.96484 15.52297,10.9888 25.0368,11.14454 h 0.0683 c 9.54615,-0.12945 18.62961,-4.13368 25.1648,-11.09334 4.50249,-5.24603 11.7532,-7.20843 18.28693,-4.94933 1.86869,0.71671 3.34516,2.19319 4.06187,4.06187 2.29967,6.54936 0.34859,13.83879 -4.9152,18.36373 -6.93105,6.53062 -10.93126,15.58339 -11.09333,25.10507 0.1239,9.52999 4.13043,18.59699 11.09333,25.10509 3.64734,3.3423 5.79953,8.0095 5.97333,12.9536 -0.14412,4.9486 -2.30158,9.6242 -5.97333,12.945 z"
   style="fill:#00ff00;fill-rule:nonzero;stroke-width:8.53333" /></svg>
