<?xml version="1.0" encoding="iso-8859-1"?>
<!-- Generator: Adobe Illustrator 19.0.0, SVG Export Plug-In . SVG Version: 6.00 Build 0)  -->
<svg xmlns="http://www.w3.org/2000/svg" xmlns:xlink="http://www.w3.org/1999/xlink" version="1.1" id="Capa_1" x="0px" y="0px" viewBox="0 0 512 512" style="enable-background:new 0 0 512 512;" xml:space="preserve">
<g>
	<g>
		<g>
			<path d="M78.214,278.63c4.143,0,7.5-3.357,7.5-7.5v-1.134c0-4.143-3.357-7.5-7.5-7.5s-7.5,3.357-7.5,7.5v1.134     C70.714,275.272,74.071,278.63,78.214,278.63z"/>
			<path d="M101.004,278.63c4.143,0,7.5-3.357,7.5-7.5v-1.134c0-4.143-3.357-7.5-7.5-7.5c-4.143,0-7.5,3.357-7.5,7.5v1.134     C93.504,275.272,96.861,278.63,101.004,278.63z"/>
			<path d="M152.282,278.63c4.143,0,7.5-3.357,7.5-7.5v-1.134c0-4.143-3.357-7.5-7.5-7.5s-7.5,3.357-7.5,7.5v1.134     C144.782,275.272,148.139,278.63,152.282,278.63z"/>
			<path d="M152.282,346.619c4.143,0,7.5-3.357,7.5-7.5v-1.134c0-4.143-3.357-7.5-7.5-7.5s-7.5,3.357-7.5,7.5v1.134     C144.782,343.262,148.14,346.619,152.282,346.619z"/>
			<path d="M449.145,114.669V96.111c0-9.649-7.851-17.5-17.5-17.5h-28.056c-9.649,0-17.5,7.851-17.5,17.5v18.558     c-13.53,1.713-24.027,13.295-24.027,27.282v91.413c0,13.987,10.497,25.569,24.027,27.282v18.558c0,9.649,7.851,17.5,17.5,17.5     h28.056c9.649,0,17.5-7.851,17.5-17.5v-18.558c13.529-1.713,24.027-13.295,24.027-27.282v-91.413     C473.172,127.964,462.674,116.382,449.145,114.669z M401.089,96.111c0-1.379,1.121-2.5,2.5-2.5h28.056c1.379,0,2.5,1.121,2.5,2.5     v18.34h-33.056V96.111z M434.145,279.204c0,1.379-1.121,2.5-2.5,2.5h-28.056c-1.379,0-2.5-1.121-2.5-2.5v-18.34h33.056V279.204z      M458.172,146.373h-52.568c-4.143,0-7.5,3.357-7.5,7.5s3.357,7.5,7.5,7.5h52.568v52.569h-52.568c-4.143,0-7.5,3.357-7.5,7.5     s3.357,7.5,7.5,7.5h52.568v4.422c0,6.893-5.607,12.5-12.5,12.5h-4.027h-52.083c-6.893,0-12.5-5.607-12.5-12.5v-38.207h52.569     c4.143,0,7.5-3.357,7.5-7.5s-3.357-7.5-7.5-7.5h-52.569v-38.206c0-6.893,5.607-12.5,12.5-12.5h56.11     c6.893,0,12.5,5.607,12.5,12.5h0V146.373z"/>
			<path d="M101.004,346.619c4.143,0,7.5-3.357,7.5-7.5v-1.134c0-4.143-3.357-7.5-7.5-7.5c-4.143,0-7.5,3.357-7.5,7.5v1.134     C93.504,343.262,96.861,346.619,101.004,346.619z"/>
			<path d="M440.363,339.236h-0.971c-4.143,0-7.5,3.357-7.5,7.5s3.357,7.5,7.5,7.5h0.971c4.143,0,7.5-3.357,7.5-7.5     S444.506,339.236,440.363,339.236z"/>
			<path d="M452.913,319.931H278.479c-9.649,0-17.5,7.851-17.5,17.5v18.611c0,9.649,7.851,17.5,17.5,17.5h174.433     c9.488,0,17.207-7.695,17.207-17.153v-19.306C470.119,327.625,462.4,319.931,452.913,319.931z M331.98,358.542h-23.828v-9.231     c0-4.143-3.357-7.5-7.5-7.5s-7.5,3.357-7.5,7.5v9.231h-14.674c-1.379,0-2.5-1.121-2.5-2.5v-18.611c0-1.379,1.121-2.5,2.5-2.5     h53.502V358.542z M378.308,341.81c-4.143,0-7.5,3.357-7.5,7.5v9.231H346.98V334.93h63.588c-0.619,3.891-0.932,7.837-0.932,11.806     c0,3.969,0.313,7.914,0.933,11.805h-24.761v-9.231C385.808,345.167,382.451,341.81,378.308,341.81z M455.119,356.043     c0,1.379-1.121,2.5-2.5,2.5h-26.812c-0.778-3.87-1.171-7.823-1.171-11.806c0-3.985,0.393-7.937,1.17-11.806h26.813     c1.379,0,2.5,1.121,2.5,2.5V356.043z"/>
			<path d="M475.379,40H116.704c-4.143,0-7.5,3.357-7.5,7.5s3.357,7.5,7.5,7.5h98.792v139.444h-53.92v-63.112     c13.91-3.365,24.268-15.872,24.268-30.742c0-17.442-14.251-31.632-31.768-31.632c-17.517,0-31.768,14.191-31.768,31.632     c0,14.87,10.359,27.377,24.268,30.742v63.112H83.92v-63.112c13.91-3.365,24.268-15.872,24.268-30.742     c0-17.442-14.251-31.632-31.768-31.632c-17.517,0-31.768,14.191-31.768,31.632c0,14.87,10.359,27.377,24.268,30.742v63.112H15     V76.458C15,64.626,24.699,55,36.621,55h49.991c4.143,0,7.5-3.357,7.5-7.5s-3.357-7.5-7.5-7.5H36.621C16.428,40,0,56.355,0,76.458     v359.084C0,455.645,16.428,472,36.621,472h438.758C495.572,472,512,455.645,512,435.542V76.458C512,56.355,495.572,40,475.379,40     z M137.308,100.59c0-9.171,7.521-16.632,16.768-16.632s16.768,7.461,16.768,16.632c0,9.171-7.522,16.633-16.768,16.633     C144.83,117.223,137.308,109.761,137.308,100.59z M59.652,100.59c0-9.171,7.522-16.632,16.768-16.632     c9.246,0,16.768,7.461,16.768,16.632c0,9.171-7.522,16.633-16.768,16.633C67.174,117.223,59.652,109.761,59.652,100.59z      M15,209.444h200.496v189.639H36.621c-11.922,0-21.621-9.626-21.621-21.458V209.444z M497,377.625     c0,11.832-9.699,21.458-21.621,21.458h-42.063c-4.143,0-7.5,3.357-7.5,7.5s3.357,7.5,7.5,7.5h42.063     c8.08,0,15.558-2.619,21.621-7.049v28.508c0,11.832-9.699,21.458-21.621,21.458H36.621C24.699,457,15,447.374,15,435.542v-28.508     c6.063,4.43,13.541,7.049,21.621,7.049h368.22c4.143,0,7.5-3.357,7.5-7.5s-3.357-7.5-7.5-7.5H230.496V55h244.883     C487.301,55,497,64.626,497,76.458V377.625z"/>
			<path d="M297.48,296.704c10.647,0,19.618-7.946,20.865-18.484l18.412-155.634c1.316-11.119-2.204-22.304-9.656-30.689     c-7.502-8.443-18.3-13.285-29.623-13.285s-22.12,4.842-29.622,13.284c-7.452,8.385-10.971,19.571-9.656,30.69l18.413,155.635     C277.86,288.758,286.831,296.704,297.48,296.704z M279.069,101.86c4.659-5.242,11.369-8.249,18.411-8.249     c7.041,0,13.752,3.007,18.41,8.249c4.675,5.261,6.796,11.995,5.972,18.964l-18.413,155.633c-0.354,2.991-2.92,5.247-5.969,5.247     c-3.05,0-5.616-2.256-5.97-5.246l-18.413-155.634C272.272,113.856,274.394,107.121,279.069,101.86z"/>
			<path d="M78.214,346.619c4.143,0,7.5-3.357,7.5-7.5v-1.134c0-4.143-3.357-7.5-7.5-7.5s-7.5,3.357-7.5,7.5v1.134     C70.714,343.262,74.071,346.619,78.214,346.619z"/>
			<path d="M297.479,135.425c4.143,0,7.5-3.357,7.5-7.5v-11.947c0-4.143-3.357-7.5-7.5-7.5s-7.5,3.357-7.5,7.5v11.947     C289.979,132.067,293.337,135.425,297.479,135.425z"/>
			<path d="M89.609,385.712c9.435,0,18.234-2.759,25.627-7.508c7.607,4.869,16.544,7.508,25.652,7.508     c26.127,0,47.383-21.156,47.383-47.161c0-12.948-5.316-25.164-14.523-33.981c9.228-8.785,14.523-20.926,14.523-34.007     c0-26.005-21.256-47.161-47.383-47.161c-9.225,0-18.017,2.582-25.659,7.504c-7.391-4.746-16.189-7.504-25.62-7.504     c-26.127,0-47.383,21.156-47.383,47.161c0,13.334,5.588,25.392,14.556,33.978c-9.225,8.822-14.556,21.058-14.556,34.011     C42.226,364.557,63.481,385.713,89.609,385.712z M140.887,238.402c17.857,0,32.383,14.428,32.383,32.161     c0,11.277-5.788,21.535-15.484,27.44c-5.069,3.088-10.913,4.72-16.898,4.72c-4.919,0-9.65-1.067-13.965-3.124     c6.305-8.011,10.069-18.094,10.069-29.036c0-10.942-3.763-21.024-10.07-29.035C131.241,239.47,135.974,238.402,140.887,238.402z      M136.983,339.498c0.007-0.125,0.01-0.251,0.01-0.378v-1.134c0-0.127-0.003-0.253-0.01-0.378     c-0.146-7.335-1.985-14.416-5.292-20.762c2.996,0.582,6.071,0.878,9.197,0.878c6.967,0,13.809-1.519,20.056-4.424     c7.761,6.085,12.327,15.357,12.327,25.252c0,17.733-14.527,32.161-32.383,32.161c-4.929,0-9.655-1.065-13.968-3.122     C133.046,359.811,136.772,350.076,136.983,339.498z M89.609,238.402c17.857,0,32.384,14.428,32.384,32.161     c0,17.733-14.527,32.16-32.384,32.16s-32.383-14.427-32.383-32.16S71.752,238.402,89.609,238.402z M69.564,313.291     c6.091,2.843,12.886,4.432,20.046,4.432c7.176,0,13.986-1.596,20.088-4.45c0.165,0.164,0.34,0.322,0.524,0.473     c7.48,6.14,11.771,15.181,11.771,24.806c0,17.733-14.527,32.161-32.384,32.161s-32.383-14.428-32.383-32.161     C57.226,328.661,61.799,319.377,69.564,313.291z"/>
		</g>
	</g>
</g>
<g>
</g>
<g>
</g>
<g>
</g>
<g>
</g>
<g>
</g>
<g>
</g>
<g>
</g>
<g>
</g>
<g>
</g>
<g>
</g>
<g>
</g>
<g>
</g>
<g>
</g>
<g>
</g>
<g>
</g>
</svg>
