<?xml version="1.0" encoding="iso-8859-1"?>
<!-- Generator: Adobe Illustrator 19.0.0, SVG Export Plug-In . SVG Version: 6.00 Build 0)  -->
<svg xmlns="http://www.w3.org/2000/svg" xmlns:xlink="http://www.w3.org/1999/xlink" version="1.1" id="Capa_1" x="0px" y="0px" viewBox="0 0 512 512" style="enable-background:new 0 0 512 512;" xml:space="preserve">
<g>
	<g>
		<g>
			<path d="M492.191,19.783C479.433,7.026,462.471,0,444.43,0c-18.042,0-35.004,7.026-47.762,19.783L200.7,215.751     c-2.929,2.929-2.929,7.678,0,10.606c1.465,1.464,3.385,2.197,5.304,2.197c1.92,0,3.839-0.732,5.304-2.197L407.276,30.39     C417.199,20.465,430.395,15,444.43,15c14.035,0,27.229,5.465,37.153,15.39c9.925,9.924,15.391,23.12,15.391,37.154     c0,14.035-5.466,27.23-15.391,37.155l-32.89,32.89c-2.929,2.929-2.929,7.678,0,10.606c2.93,2.929,7.678,2.929,10.607,0     l32.89-32.89c12.757-12.757,19.783-29.719,19.783-47.761C511.974,49.502,504.947,32.541,492.191,19.783z"/>
			<path d="M261.153,279.549c1.919,0,3.839-0.732,5.304-2.197c2.929-2.929,2.929-7.677,0-10.606l-21.229-21.229     c-2.929-2.929-7.677-2.93-10.607,0c-2.929,2.929-2.929,7.677,0,10.606l21.229,21.229     C257.315,278.817,259.234,279.549,261.153,279.549z"/>
			<path d="M213.391,266.746c-2.929,2.929-2.929,7.677,0.001,10.606l21.229,21.229c1.464,1.465,3.384,2.197,5.303,2.197     s3.839-0.733,5.304-2.197c2.929-2.929,2.929-7.677-0.001-10.606l-21.229-21.229C221.07,263.816,216.321,263.817,213.391,266.746z     "/>
			<path d="M192.163,287.975c-2.929,2.929-2.929,7.677,0,10.606l21.229,21.229c1.465,1.465,3.384,2.197,5.304,2.197     c1.919,0,3.839-0.732,5.304-2.197c2.929-2.929,2.929-7.677,0-10.606l-21.229-21.229     C199.842,285.046,195.094,285.045,192.163,287.975z"/>
			<path d="M428.773,157.509L243.138,343.144c-2.078,2.079-2.751,5.18-1.72,7.933c14.105,37.672,11.11,79.441-8.218,114.598     c-1.899,3.455-5.235,5.756-9.153,6.313c-3.942,0.561-7.825-0.731-10.642-3.547l-6.49-6.49c-0.146-0.147-0.299-0.287-0.454-0.419     c28.912-43.69,24.145-103.264-14.305-141.714c-10.466-10.466-22.644-18.64-36.193-24.296c-3.823-1.594-8.214,0.21-9.81,4.032     c-1.596,3.823,0.209,8.215,4.032,9.811c11.735,4.898,22.288,11.984,31.363,21.06c38.046,38.045,38.046,99.95,0,137.996     c-38.045,38.045-99.95,38.046-137.995,0c-38.046-38.046-38.046-99.95,0-137.996c21.01-21.009,50.026-31.216,79.595-28.007     c4.127,0.446,7.818-2.529,8.266-6.646c0.447-4.118-2.528-7.819-6.646-8.266c-26.499-2.879-52.614,3.588-74.314,17.983     l-6.92-6.921c-2.816-2.816-4.109-6.695-3.548-10.642c0.558-3.917,2.858-7.254,6.313-9.153     c35.155-19.328,76.925-22.324,114.598-8.218c2.753,1.029,5.854,0.359,7.934-1.721l23.063-23.063     c2.93-2.929,2.93-7.677,0.001-10.606c-2.929-2.929-7.678-2.929-10.606,0l-19.711,19.709     c-40.555-13.741-84.93-9.902-122.504,10.754c-7.629,4.195-12.709,11.551-13.938,20.185c-1.232,8.663,1.607,17.177,7.791,23.361     l5.507,5.507c-1.876,1.644-3.706,3.357-5.486,5.137c-43.894,43.894-43.894,115.314,0,159.208     C54.21,500.29,82.481,512,112.552,512c30.07,0,58.341-11.71,79.604-32.973c1.784-1.784,3.496-3.615,5.136-5.486l5.507,5.507     c6.185,6.185,14.7,9.023,23.361,7.791c8.634-1.229,15.99-6.309,20.185-13.938c20.657-37.574,24.496-81.948,10.753-122.504     L439.38,168.116c2.929-2.929,2.929-7.678,0-10.606C436.45,154.581,431.702,154.581,428.773,157.509z"/>
			<path d="M75.405,362.276c-9.923,9.921-15.388,23.114-15.388,37.146s5.465,27.224,15.387,37.146s23.115,15.387,37.147,15.387     s27.224-5.465,37.146-15.387c9.923-9.921,15.388-23.114,15.388-37.146s-5.465-27.224-15.388-37.146     C129.216,341.794,95.889,341.792,75.405,362.276z M150.085,399.422c0,10.025-3.904,19.451-10.994,26.54     c-14.633,14.633-38.446,14.634-53.079,0h-0.001c-7.089-7.089-10.993-16.515-10.993-26.54s3.904-19.451,10.993-26.54     c7.317-7.317,16.929-10.975,26.54-10.975c9.612,0,19.224,3.658,26.54,10.975C146.181,379.972,150.085,389.397,150.085,399.422z"/>
			<path d="M469.547,88.416c6.141-6.142,9.524-14.308,9.524-22.994s-3.382-16.852-9.524-22.994c-12.679-12.679-33.31-12.68-45.988,0     c-6.142,6.142-9.525,14.308-9.525,22.994c0,8.686,3.382,16.852,9.525,22.994c6.339,6.339,14.666,9.508,22.993,9.509     C454.88,97.925,463.207,94.755,469.547,88.416z M434.164,77.809L434.164,77.809c-3.309-3.309-5.131-7.709-5.131-12.388     c0-4.679,1.823-9.078,5.132-12.387c6.831-6.831,17.944-6.83,24.775,0c3.309,3.308,5.131,7.707,5.131,12.387     c0,4.68-1.822,9.079-5.131,12.388C452.107,84.64,440.995,84.639,434.164,77.809z"/>
		</g>
	</g>
</g>
<g>
</g>
<g>
</g>
<g>
</g>
<g>
</g>
<g>
</g>
<g>
</g>
<g>
</g>
<g>
</g>
<g>
</g>
<g>
</g>
<g>
</g>
<g>
</g>
<g>
</g>
<g>
</g>
<g>
</g>
</svg>
