<?xml version="1.0" encoding="iso-8859-1"?>
<!-- Generator: Adobe Illustrator 19.0.0, SVG Export Plug-In . SVG Version: 6.00 Build 0)  -->
<svg xmlns="http://www.w3.org/2000/svg" xmlns:xlink="http://www.w3.org/1999/xlink" version="1.1" id="Capa_1" x="0px" y="0px" viewBox="0 0 512 512" style="enable-background:new 0 0 512 512;" xml:space="preserve">
<g>
	<g>
		<g>
			<path d="M455.965,349.452h-5.311l23.977-89.482c0.244,0.006,0.49,0.024,0.734,0.024c14.025,0,26.895-9.374,30.693-23.549     c2.196-8.196,1.069-16.757-3.174-24.106c-4.243-7.349-11.094-12.606-19.29-14.802c-8.195-2.197-16.756-1.069-24.105,3.174     s-12.606,11.094-14.802,19.29c-3.865,14.424,2.893,29.229,15.452,36.094l-25.015,93.357h-2.722V168.567     c5.735-2.793,9.707-8.665,9.707-15.462v-38.828c0-9.488-7.719-17.207-17.207-17.207H315.918V47.5c0-26.191-21.309-47.5-47.5-47.5     h-94.727c-26.191,0-47.5,21.309-47.5,47.5v49.57H17.207C7.719,97.07,0,104.79,0,114.277v38.828     c0,6.797,3.972,12.669,9.707,15.463v149.557c0,4.142,3.358,7.5,7.5,7.5c4.142,0,7.5-3.358,7.5-7.5V170.313h19.945v11.914     c0,20.193,16.428,36.621,36.621,36.621h23.297c4.142,0,7.5-3.358,7.5-7.5c0-4.142-3.358-7.5-7.5-7.5H81.273     c-11.922,0-21.621-9.699-21.621-21.621v-11.914h277.887c4.142,0,7.5-3.358,7.5-7.5c0-4.142-3.358-7.5-7.5-7.5H17.207     c-1.217,0-2.207-0.99-2.207-2.207v-38.828c0-1.217,0.99-2.207,2.207-2.207h116.484h174.727h116.485     c1.217,0,2.207,0.99,2.207,2.207v38.828c0,1.217-0.99,2.207-2.207,2.207h-58.242c-4.142,0-7.5,3.358-7.5,7.5     c0,4.142,3.358,7.5,7.5,7.5h50.742v179.139h-18.254l-25.015-93.357c12.559-6.865,19.317-21.67,15.452-36.094     c-2.197-8.197-7.454-15.047-14.802-19.29s-15.909-5.369-24.105-3.174c-8.197,2.197-15.047,7.454-19.29,14.802     c-4.243,7.348-5.37,15.909-3.174,24.105c2.197,8.197,7.453,15.047,14.802,19.29c4.895,2.827,10.327,4.27,15.832,4.27     c0.265,0,0.531-0.019,0.796-0.026l23.974,89.475h-5.311c-30.898,0-56.035,25.137-56.035,56.035     c0,6.796,3.972,12.668,9.707,15.462v6.159H56.035c-17.274,0-31.328-14.054-31.328-31.328v-48.535c0-4.142-3.358-7.5-7.5-7.5     c-4.142,0-7.5,3.358-7.5,7.5v48.535c0,25.545,20.783,46.328,46.328,46.328H78.87v11.914c0,9.488,7.719,17.207,17.207,17.207     h38.828c9.488,0,17.207-7.719,17.207-17.207v-11.914h137.886v11.914c0,9.488,7.719,17.207,17.207,17.207h24.776v13.856     c0,14.84,12.074,26.914,26.914,26.914h116.484c14.84,0,26.914-12.074,26.914-26.914v-64.135     c5.735-2.794,9.707-8.666,9.707-15.464C512,374.589,486.863,349.452,455.965,349.452z M459.177,223.882     c2.393-8.93,11.608-14.251,20.536-11.856c4.326,1.16,7.942,3.934,10.181,7.813c2.239,3.879,2.835,8.397,1.675,12.724     c-2.392,8.93-11.604,14.251-20.536,11.856C462.103,242.027,456.784,232.814,459.177,223.882z M173.691,15h94.727     c14.917,0,27.511,10.106,31.316,23.828H142.376C146.181,25.106,158.774,15,173.691,15z M300.918,97.07H141.191V53.828h159.727     V97.07z M363.241,244.419c-8.934,2.392-18.144-2.925-20.536-11.856c-2.393-8.931,2.926-18.143,11.856-20.536     c1.448-0.388,2.903-0.573,4.336-0.573c7.403,0,14.195,4.947,16.2,12.429C377.49,232.814,372.171,242.026,363.241,244.419z      M137.112,454.023c0,1.217-0.99,2.207-2.207,2.207H96.077c-1.217,0-2.207-0.99-2.207-2.207v-11.914h43.242V454.023z      M331.98,456.23h-24.776c-1.217,0-2.207-0.99-2.207-2.207v-11.914h26.983V456.23z M431.106,364.453l-3.784,14.121h-20.37     l-3.784-14.121H431.106z M494.793,407.695h-89.305c-4.142,0-7.5,3.358-7.5,7.5c0,4.142,3.358,7.5,7.5,7.5h81.805v62.391     c0,6.569-5.345,11.914-11.915,11.914H358.894c-6.569,0-11.914-5.345-11.914-11.914v-62.391h29.388c4.142,0,7.5-3.358,7.5-7.5     c0-4.142-3.358-7.5-7.5-7.5h-36.887c-1.217,0-2.207-0.99-2.207-2.207c0-22.627,18.408-41.035,41.035-41.035h9.33l3.784,14.121     h-13.114c-4.142,0-7.5,3.358-7.5,7.5c0,4.142,3.358,7.5,7.5,7.5h77.656c4.142,0,7.5-3.358,7.5-7.5c0-4.142-3.358-7.5-7.5-7.5     h-13.114l3.784-14.121h9.33c22.627,0,41.035,18.408,41.035,41.035C497,406.705,496.01,407.695,494.793,407.695z"/>
			<path d="M188.051,281.505h-48.535c-20.193,0-36.621,16.428-36.621,36.621c0,0.026,0.004,0.051,0.004,0.077v19.337     c0,20.193,16.428,36.621,36.621,36.621c4.142,0,7.5-3.358,7.5-7.5c0-4.142-3.358-7.5-7.5-7.5     c-11.922,0-21.621-9.699-21.621-21.621v-19.414c0-0.018-0.003-0.035-0.003-0.052c0.028-11.899,9.715-21.57,21.62-21.57h48.535     c20.193,0,36.621-16.428,36.621-36.621v-19.414c0-20.193-16.428-36.621-36.621-36.621h-54.359c-4.142,0-7.5,3.358-7.5,7.5     c0,4.142,3.358,7.5,7.5,7.5h54.359c11.922,0,21.621,9.699,21.621,21.621v19.414C209.672,271.805,199.973,281.504,188.051,281.505     z"/>
		</g>
	</g>
</g>
<g>
</g>
<g>
</g>
<g>
</g>
<g>
</g>
<g>
</g>
<g>
</g>
<g>
</g>
<g>
</g>
<g>
</g>
<g>
</g>
<g>
</g>
<g>
</g>
<g>
</g>
<g>
</g>
<g>
</g>
</svg>
