<?xml version="1.0" encoding="iso-8859-1"?>
<!-- Generator: Adobe Illustrator 19.0.0, SVG Export Plug-In . SVG Version: 6.00 Build 0)  -->
<svg xmlns="http://www.w3.org/2000/svg" xmlns:xlink="http://www.w3.org/1999/xlink" version="1.1" id="Capa_1" x="0px" y="0px" viewBox="0 0 512 512" style="enable-background:new 0 0 512 512;" xml:space="preserve">
<g>
	<g>
		<g>
			<path d="M268.618,264.01c-4.143,0-7.5,3.358-7.5,7.5v48.469c0,4.142,3.357,7.5,7.5,7.5s7.5-3.358,7.5-7.5V271.51     C276.118,267.368,272.761,264.01,268.618,264.01z"/>
			<path d="M276.118,193.959c0-4.142-3.357-7.5-7.5-7.5s-7.5,3.358-7.5,7.5v48.47c0,4.142,3.357,7.5,7.5,7.5s7.5-3.358,7.5-7.5     V193.959z"/>
			<path d="M114.762,148.143H235.88v16.734c0,4.142,3.358,7.5,7.5,7.5c4.142,0,7.5-3.358,7.5-7.5v-16.734h10.238v16.734     c0,4.142,3.357,7.5,7.5,7.5s7.5-3.358,7.5-7.5V55.082h15.797c11.922,0,21.621,9.682,21.621,21.582c0,4.142,3.357,7.5,7.5,7.5     s7.5-3.358,7.5-7.5c0-20.171-16.428-36.582-36.621-36.582h-16.57C271.872,23.495,257.118,11,239.497,11h-19.414     c-20.193,0-36.621,16.411-36.621,36.582v29.082c0,11.9-9.699,21.582-21.621,21.582c-4.142,0-7.5,3.358-7.5,7.5     c0,4.142,3.358,7.5,7.5,7.5c20.193,0,36.621-16.411,36.621-36.582V47.582c0-11.9,9.699-21.582,21.621-21.582h19.414     c10.035,0,18.495,6.859,20.922,16.127c-14.275,4.997-24.539,18.591-24.539,34.536v56.48H114.762c-4.142,0-7.5,3.358-7.5,7.5     C107.262,144.785,110.62,148.143,114.762,148.143z M250.88,76.663c0-7.734,4.097-14.531,10.238-18.342v74.822H250.88V76.663z"/>
			<path d="M491.792,253.612c-12.182-24.33-18.62-51.568-18.62-78.77v-24.505c0-9.481-7.719-17.194-17.207-17.194H300.166     c-4.143,0-7.5,3.358-7.5,7.5c0,4.142,3.357,7.5,7.5,7.5h155.799c1.217,0,2.207,0.985,2.207,2.194v24.505     c0,29.521,6.987,59.081,20.208,85.485c12.182,24.33,18.62,51.568,18.62,78.77v24.505c0,1.21-0.99,2.194-2.207,2.194h-58.89     c-4.143,0-7.5,3.358-7.5,7.5c0,4.142,3.357,7.5,7.5,7.5h58.89c9.488,0,17.207-7.714,17.207-17.194v-24.505     C512,309.576,505.013,280.015,491.792,253.612z"/>
			<path d="M406.459,365.797H276.118v-16.735c0-4.142-3.357-7.5-7.5-7.5s-7.5,3.358-7.5,7.5v16.735H250.88v-16.735     c0-4.142-3.358-7.5-7.5-7.5c-4.142,0-7.5,3.358-7.5,7.5v16.735H56.036c-1.217,0-2.207-0.985-2.207-2.194v-24.505     c0-29.521-6.988-59.081-20.208-85.486C21.439,229.281,15,202.043,15,174.842v-24.505c0-1.21,0.99-2.194,2.207-2.194h69.405     c4.142,0,7.5-3.358,7.5-7.5c0-4.142-3.358-7.5-7.5-7.5H17.207C7.719,133.143,0,140.856,0,150.337v24.505     c0,29.52,6.988,59.08,20.207,85.485c12.182,24.331,18.621,51.569,18.621,78.77v24.505c0,9.481,7.719,17.194,17.207,17.194H235.88     V493.5c0,4.142,3.358,7.5,7.5,7.5c4.142,0,7.5-3.358,7.5-7.5V380.796h10.238v83.623c0,4.142,3.357,7.5,7.5,7.5s7.5-3.358,7.5-7.5     v-83.623h130.341c4.143,0,7.5-3.358,7.5-7.5C413.959,369.154,410.602,365.796,406.459,365.797z"/>
			<path d="M243.38,264.01c-4.142,0-7.5,3.358-7.5,7.5v48.469c0,4.142,3.358,7.5,7.5,7.5c4.142,0,7.5-3.358,7.5-7.5V271.51     C250.88,267.368,247.522,264.01,243.38,264.01z"/>
			<path d="M250.88,193.959c0-4.142-3.358-7.5-7.5-7.5c-4.142,0-7.5,3.358-7.5,7.5v48.47c0,4.142,3.358,7.5,7.5,7.5     c4.142,0,7.5-3.358,7.5-7.5V193.959z"/>
		</g>
	</g>
</g>
<g>
</g>
<g>
</g>
<g>
</g>
<g>
</g>
<g>
</g>
<g>
</g>
<g>
</g>
<g>
</g>
<g>
</g>
<g>
</g>
<g>
</g>
<g>
</g>
<g>
</g>
<g>
</g>
<g>
</g>
</svg>
