<?xml version="1.0" encoding="iso-8859-1"?>
<!-- Generator: Adobe Illustrator 19.0.0, SVG Export Plug-In . SVG Version: 6.00 Build 0)  -->
<svg xmlns="http://www.w3.org/2000/svg" xmlns:xlink="http://www.w3.org/1999/xlink" version="1.1" id="Capa_1" x="0px" y="0px" viewBox="0 0 512 512" style="enable-background:new 0 0 512 512;" xml:space="preserve">
<g>
	<g>
		<g>
			<path d="M355.636,52.604c2.929-2.93,2.929-7.678,0-10.608c-2.929-2.927-7.677-2.929-10.608,0l-57.186,57.189     c-2.929,2.93-2.929,7.678,0,10.608c1.465,1.464,3.384,2.196,5.304,2.196c1.919,0,3.839-0.732,5.304-2.196L355.636,52.604z"/>
			<path d="M280.696,199.267c-4.281,4.281-6.639,9.973-6.639,16.027s2.357,11.746,6.638,16.027     c4.419,4.418,10.223,6.628,16.027,6.628c5.803,0,11.607-2.209,16.026-6.628c8.836-8.838,8.836-23.216,0-32.054     C303.911,190.433,289.532,190.429,280.696,199.267z M302.14,220.712c-2.987,2.989-7.852,2.989-10.837,0c-0.001,0-0.001,0-0.001,0     c-1.447-1.447-2.244-3.371-2.244-5.418s0.797-3.971,2.245-5.418c1.493-1.494,3.456-2.241,5.419-2.241     c1.962,0,3.925,0.747,5.418,2.241c1.447,1.446,2.244,3.371,2.244,5.418S303.587,219.266,302.14,220.712z"/>
			<path d="M459.398,156.375l-57.185,57.19c-2.929,2.93-2.929,7.678,0,10.608c1.465,1.464,3.385,2.196,5.304,2.196     s3.839-0.732,5.304-2.196l57.185-57.19c2.929-2.93,2.929-7.678,0-10.608C467.077,153.447,462.329,153.447,459.398,156.375z"/>
			<path d="M495.026,131.355c-10.964-10.964-25.541-17.003-41.045-17.003c-15.505,0-30.082,6.039-41.044,17.003l-35.742,35.743     c-4.311,4.312-10.043,6.686-16.14,6.686c-6.098,0-11.83-2.374-16.142-6.687c-4.312-4.311-6.686-10.044-6.686-16.142     c0-6.097,2.374-11.83,6.687-16.141l35.741-35.743c22.631-22.634,22.63-59.461-0.001-82.095     c-22.632-22.633-59.454-22.635-82.089,0l-35.741,35.743c-10.963,10.965-17.001,25.542-17.001,41.048     c0,15.506,6.038,30.084,17.001,41.048l16.142,16.142l-51.46,51.462L29.166,316.223C15.72,323.944,6.085,336.44,2.038,351.407     c-4.048,14.968-2.025,30.616,5.695,44.063c0.99,1.726,2.626,2.987,4.546,3.506c0.644,0.174,1.302,0.26,1.958,0.26     c1.299,0,2.588-0.338,3.734-0.996L228.99,277.06c3.593-2.063,4.832-6.647,2.77-10.239c-2.063-3.592-6.646-4.831-10.238-2.77     L17.567,381.173c-2.994-8.249-3.388-17.203-1.05-25.849c3.002-11.101,10.147-20.366,20.116-26.091l194.585-111.65l26.248,26.25     l-143.677,250.23c-0.99,1.725-1.255,3.773-0.736,5.693c0.52,1.92,1.78,3.556,3.506,4.546c9.089,5.219,19.009,7.698,28.806,7.698     c20.123,0,39.716-10.464,50.435-29.132l14.07-24.503c2.063-3.592,0.823-8.177-2.77-10.239c-3.591-2.062-8.176-0.823-10.238,2.77     l-14.07,24.503c-5.726,9.972-14.992,17.117-26.09,20.119c-8.648,2.338-17.599,1.945-25.847-1.05l137.599-239.646l26.037,26.039     l-84.86,147.794c-2.063,3.592-0.823,8.177,2.77,10.239c1.177,0.676,2.461,0.997,3.728,0.997c2.598,0,5.124-1.352,6.511-3.767     l87.177-151.829l51.239-51.244l16.141,16.143c22.633,22.633,59.456,22.633,82.09,0l35.741-35.743     C517.657,190.815,517.657,153.989,495.026,131.355z M484.418,202.841l-35.741,35.743c-16.782,16.785-44.093,16.785-60.874,0     l-21.445-21.446c-1.407-1.406-3.315-2.196-5.304-2.196c-1.989,0-3.897,0.79-5.304,2.196l-51.881,51.886l-60.875-60.879     l51.883-51.885c1.406-1.407,2.196-3.315,2.196-5.304s-0.79-3.897-2.196-5.304l-21.445-21.446c0,0,0,0-0.001,0     c-8.13-8.131-12.608-18.94-12.608-30.439c0-11.498,4.478-22.309,12.609-30.439l35.741-35.743     c16.782-16.785,44.091-16.784,60.874-0.001c16.784,16.786,16.784,44.096,0,60.879l-35.74,35.743     c-7.146,7.145-11.08,16.645-11.08,26.749c0,10.105,3.935,19.605,11.079,26.749c7.145,7.146,16.644,11.081,26.749,11.081     c10.104,0,19.603-3.935,26.748-11.08l35.741-35.743c8.13-8.131,18.939-12.609,30.437-12.609c11.497,0,22.307,4.478,30.437,12.61     c8.13,8.13,12.608,18.94,12.608,30.439C497.026,183.9,492.548,194.711,484.418,202.841z"/>
		</g>
	</g>
</g>
<g>
</g>
<g>
</g>
<g>
</g>
<g>
</g>
<g>
</g>
<g>
</g>
<g>
</g>
<g>
</g>
<g>
</g>
<g>
</g>
<g>
</g>
<g>
</g>
<g>
</g>
<g>
</g>
<g>
</g>
</svg>
