<?xml version="1.0" encoding="iso-8859-1"?>
<!-- Generator: Adobe Illustrator 19.0.0, SVG Export Plug-In . SVG Version: 6.00 Build 0)  -->
<svg xmlns="http://www.w3.org/2000/svg" xmlns:xlink="http://www.w3.org/1999/xlink" version="1.1" id="Capa_1" x="0px" y="0px" viewBox="0 0 512 512" style="enable-background:new 0 0 512 512;" xml:space="preserve">
<g>
	<g>
		<g>
			<path d="M165.983,117.972c-3.32-2.477-8.018-1.794-10.496,1.525c-8.542,11.446-13.057,25.082-13.057,39.431v130.076     c0,4.142,3.357,7.5,7.5,7.5s7.5-3.358,7.5-7.5V158.928c0-11.091,3.485-21.624,10.078-30.46     C169.985,125.148,169.302,120.449,165.983,117.972z"/>
			<path d="M458.364,0.934c-4.622-1.904-9.887-0.843-13.415,2.708l-34.662,34.894L375.624,3.642     c-3.527-3.551-8.795-4.613-13.415-2.708c-4.64,1.912-7.637,6.398-7.637,11.426v160.159c0,4.142,3.357,7.5,7.5,7.5     s7.5-3.358,7.5-7.5V18.834l35.395,35.629c1.407,1.417,3.322,2.214,5.32,2.214c1.998,0,3.913-0.797,5.321-2.214l35.393-35.629     v363.359c0,27.98-22.59,50.743-50.357,50.743h-54.917c14.553-12.068,23.846-30.334,23.846-50.743V201.64     c0-4.142-3.357-7.5-7.5-7.5s-7.5,3.358-7.5,7.5v180.553c0,27.98-22.59,50.743-50.357,50.743h-38.571     c-27.767,0-50.356-22.763-50.356-50.743V158.928c0-20.409-9.292-38.675-23.846-50.743h54.917     c27.767,0,50.356,22.763,50.356,50.743v223.265c0,13.38,3.974,26.258,11.492,37.244c2.339,3.418,7.005,4.293,10.426,1.954     c3.418-2.34,4.292-7.007,1.953-10.425c-5.804-8.48-8.871-18.429-8.871-28.772V158.928c0-36.251-29.318-65.743-65.356-65.743h-135     c-36.04,0-65.359,29.492-65.359,65.743V499.64c0,5.028,2.997,9.514,7.637,11.426c1.524,0.628,3.118,0.934,4.697,0.934     c3.209,0,6.354-1.262,8.718-3.642l34.662-34.894l34.663,34.894c3.527,3.551,8.795,4.613,13.415,2.708     c4.64-1.912,7.637-6.398,7.637-11.426V318.125c0-4.142-3.357-7.5-7.5-7.5s-7.5,3.358-7.5,7.5v175.04l-35.395-35.629     c-1.407-1.418-3.322-2.214-5.32-2.214s-3.913,0.797-5.321,2.214l-35.393,35.629V158.928c0-27.98,22.59-50.743,50.357-50.743     h38.571c27.768,0,50.357,22.763,50.357,50.743v223.265c0,36.251,29.318,65.743,65.356,65.743h135     c36.038,0,65.357-29.492,65.357-65.743V12.36C466.001,7.331,463.004,2.846,458.364,0.934z"/>
		</g>
	</g>
</g>
<g>
</g>
<g>
</g>
<g>
</g>
<g>
</g>
<g>
</g>
<g>
</g>
<g>
</g>
<g>
</g>
<g>
</g>
<g>
</g>
<g>
</g>
<g>
</g>
<g>
</g>
<g>
</g>
<g>
</g>
</svg>
