<?xml version="1.0" encoding="iso-8859-1"?>
<!-- Generator: Adobe Illustrator 19.0.0, SVG Export Plug-In . SVG Version: 6.00 Build 0)  -->
<svg xmlns="http://www.w3.org/2000/svg" xmlns:xlink="http://www.w3.org/1999/xlink" version="1.1" id="Capa_1" x="0px" y="0px" viewBox="0 0 512.001 512.001" style="enable-background:new 0 0 512.001 512.001;" xml:space="preserve">
<g>
	<g>
		<g>
			<path d="M77.343,221.035c0,4.142,3.358,7.499,7.499,7.499s7.499-3.358,7.499-7.499v-48.531c0-4.142-3.358-7.499-7.499-7.499     s-7.499,3.358-7.499,7.499V221.035z"/>
			<path d="M84.843,150.884c4.142,0,7.499-3.358,7.499-7.499v-48.53c0-4.142-3.358-7.499-7.499-7.499s-7.499,3.358-7.499,7.499     v48.531C77.343,147.527,80.701,150.884,84.843,150.884z"/>
			<path d="M225.954,419.798c-2.796,3.056-2.585,7.799,0.471,10.595l30.57,27.966c3.301,3.019,7.438,4.528,11.576,4.528     c4.139,0,8.276-1.509,11.576-4.528l30.566-27.963c3.056-2.796,3.267-7.539,0.471-10.595s-7.538-3.267-10.595-0.471     l-30.566,27.963c-0.827,0.757-2.076,0.757-2.904,0l-30.57-27.966C233.492,416.532,228.749,416.742,225.954,419.798z"/>
			<path d="M82.937,299.127l10.383,9.499c1.439,1.316,3.252,1.966,5.061,1.966c2.031,0,4.057-0.821,5.535-2.438     c2.796-3.057,2.585-7.799-0.471-10.595l-10.383-9.498c-0.457-0.418-0.719-1.016-0.719-1.641v-36.267     c0-4.142-3.358-7.499-7.499-7.499c-4.142,0-7.499,3.358-7.499,7.499v36.267h-0.001C77.343,291.242,79.382,295.874,82.937,299.127     z"/>
			<path d="M137.06,38.824H94.513c-9.467,0-17.169,7.718-17.169,17.205v9.707c0,4.142,3.358,7.499,7.499,7.499     c4.142,0,7.499-3.358,7.499-7.499V56.03c0-1.217,0.974-2.207,2.171-2.207h42.548c4.142,0,7.499-3.358,7.499-7.499     S141.203,38.824,137.06,38.824z"/>
			<path d="M400.45,380.506L276.548,493.853c-4.549,4.162-11.408,4.161-15.957,0L57.524,308.081     c-2.455-2.245-3.862-5.444-3.862-8.776V26.877c0-6.549,5.312-11.878,11.841-11.878h39.646c4.142,0,7.499-3.358,7.499-7.499     c0-4.142-3.358-7.499-7.499-7.499H65.503c-14.8,0-26.84,12.057-26.84,26.877v272.428c0,7.531,3.185,14.764,8.737,19.843     l54.312,49.685H50.031c-20.131,0-36.509,16.427-36.509,36.618v19.412c0,20.191,16.378,36.618,36.509,36.618h58.02     c11.861,0,21.51,9.698,21.51,21.619c0,4.142,3.358,7.499,7.499,7.499s7.499-3.358,7.499-7.499     c0-20.191-16.378-36.618-36.509-36.618h-58.02c-11.861,0-21.51-9.698-21.51-21.619v-19.412c0-11.921,9.649-21.619,21.51-21.619     h67.69c0.126,0,0.252-0.003,0.377-0.009L250.468,504.92c5.161,4.721,11.63,7.081,18.102,7.081c6.47,0,12.943-2.361,18.102-7.081     l123.901-113.348c3.056-2.796,3.267-7.539,0.471-10.595C408.249,377.921,403.504,377.71,400.45,380.506z"/>
			<path d="M221.919,46.324c0-4.142-3.358-7.499-7.499-7.499h-48.35c-4.142,0-7.499,3.358-7.499,7.499     c0,4.142,3.358,7.499,7.499,7.499h48.35C218.561,53.823,221.919,50.465,221.919,46.324z"/>
			<path d="M172.908,371.27c-2.796,3.056-2.585,7.799,0.471,10.595l31.828,29.117c1.439,1.316,3.252,1.966,5.061,1.966     c2.031,0,4.056-0.82,5.535-2.438c2.796-3.056,2.585-7.799-0.471-10.595l-31.828-29.117     C180.448,368.003,175.703,368.213,172.908,371.27z"/>
			<path d="M112.187,315.721c-2.796,3.056-2.585,7.799,0.471,10.595l38.679,35.386c1.439,1.316,3.252,1.966,5.061,1.966     c2.031,0,4.056-0.82,5.536-2.438c2.796-3.056,2.585-7.799-0.471-10.595l-38.679-35.386     C119.726,312.455,114.983,312.664,112.187,315.721z"/>
			<path d="M459.798,172.504c0-4.142-3.358-7.499-7.499-7.499c-4.142,0-7.499,3.358-7.499,7.499v48.531     c0,4.142,3.358,7.499,7.499,7.499c4.142,0,7.499-3.358,7.499-7.499V172.504z"/>
			<path d="M353.638,370.799l-31.829,29.118c-3.056,2.796-3.267,7.539-0.471,10.595c1.479,1.617,3.504,2.438,5.535,2.438     c1.808,0,3.622-0.65,5.061-1.966l31.829-29.118c3.056-2.796,3.267-7.539,0.471-10.595     C361.437,368.215,356.694,368.004,353.638,370.799z"/>
			<path d="M243.429,53.823h48.349c4.142,0,7.499-3.358,7.499-7.499c0-4.142-3.358-7.499-7.499-7.499h-48.349     c-4.142,0-7.499,3.358-7.499,7.499C235.93,50.465,239.288,53.823,243.429,53.823z"/>
			<path d="M369.138,38.824h-48.35c-4.142,0-7.499,3.358-7.499,7.499c0,4.142,3.358,7.499,7.499,7.499h48.35     c4.142,0,7.499-3.358,7.499-7.499C376.637,42.182,373.279,38.824,369.138,38.824z"/>
			<path d="M471.638,0H134.159c-4.142,0-7.499,3.358-7.499,7.499c0,4.142,3.358,7.499,7.499,7.499h337.479     c6.529,0,11.841,5.329,11.841,11.878v272.428c0,3.333-1.408,6.531-3.863,8.776l-60.422,55.277     c-3.056,2.796-3.267,7.539-0.471,10.595c1.479,1.617,3.504,2.438,5.535,2.438c1.808,0,3.622-0.65,5.061-1.966l60.422-55.276     c5.552-5.079,8.737-12.312,8.737-19.843V26.877C498.478,12.057,486.438,0,471.638,0z"/>
			<path d="M373.274,363c1.479,1.617,3.504,2.438,5.536,2.438c1.808,0,3.622-0.65,5.061-1.966l32.941-30.136     c3.056-2.796,3.267-7.539,0.471-10.595c-2.796-3.056-7.54-3.267-10.595-0.471l-32.941,30.136     C370.689,355.2,370.478,359.944,373.274,363z"/>
			<path d="M452.299,242.654c-4.142,0-7.499,3.358-7.499,7.499v36.267c0,0.625-0.262,1.223-0.719,1.641l-16.174,14.797     c-3.056,2.796-3.267,7.539-0.471,10.595c1.479,1.617,3.504,2.438,5.535,2.438c1.808,0,3.622-0.65,5.061-1.966l16.174-14.797     c3.555-3.252,5.592-7.883,5.592-12.707v-36.267C459.798,246.011,456.441,242.654,452.299,242.654z"/>
			<path d="M459.798,56.03c0-9.487-7.702-17.205-17.169-17.205h-44.481c-4.142,0-7.499,3.358-7.499,7.499     c0,4.142,3.358,7.499,7.499,7.499h44.481c1.197,0,2.171,0.99,2.171,2.207v9.707c0,4.142,3.358,7.499,7.499,7.499     s7.499-3.358,7.499-7.499V56.03z"/>
			<path d="M459.798,94.855c0-4.142-3.358-7.499-7.499-7.499c-4.142,0-7.499,3.358-7.499,7.499v48.531     c0,4.142,3.358,7.499,7.499,7.499c4.142,0,7.499-3.358,7.499-7.499V94.855z"/>
		</g>
	</g>
</g>
<g>
</g>
<g>
</g>
<g>
</g>
<g>
</g>
<g>
</g>
<g>
</g>
<g>
</g>
<g>
</g>
<g>
</g>
<g>
</g>
<g>
</g>
<g>
</g>
<g>
</g>
<g>
</g>
<g>
</g>
</svg>
