<?xml version="1.0" encoding="iso-8859-1"?>
<!-- Generator: Adobe Illustrator 19.0.0, SVG Export Plug-In . SVG Version: 6.00 Build 0)  -->
<svg xmlns="http://www.w3.org/2000/svg" xmlns:xlink="http://www.w3.org/1999/xlink" version="1.1" id="Capa_1" x="0px" y="0px" viewBox="0 0 512 512" style="enable-background:new 0 0 512 512;" xml:space="preserve">
<g>
	<g>
		<g>
			<path d="M104.813,180.021h126.533l1.184,66.539h-25.065c-4.143,0-7.5,3.358-7.5,7.5c0,4.142,3.357,7.5,7.5,7.5h32.508     c0.064,0.001,0.128,0.002,0.192,0.002h31.67c0.064,0,0.128-0.001,0.192-0.002h32.508c4.143,0,7.5-3.358,7.5-7.5     c0-4.142-3.357-7.5-7.5-7.5H279.47l2.604-146.311c16.361-9.166,27.446-26.678,27.446-46.729C309.52,24.009,285.511,0,256,0     s-53.52,24.009-53.52,53.52c0,20.05,11.084,37.562,27.447,46.729l1.152,64.771H104.813c-4.143,0-7.5,3.358-7.5,7.5     C97.313,176.662,100.671,180.02,104.813,180.021z M264.468,246.559h-16.934l-2.503-140.65c7.084,1.482,14.855,1.481,21.939,0     L264.468,246.559z M217.48,53.52C217.48,32.28,234.76,15,256,15s38.52,17.279,38.52,38.519s-17.28,38.52-38.52,38.52     S217.48,74.76,217.48,53.52z"/>
			<path d="M263.5,32.576c0-4.142-3.357-7.5-7.5-7.5c-15.683,0-28.443,12.759-28.443,28.443c0,4.142,3.357,7.5,7.5,7.5     s7.5-3.358,7.5-7.5c0-7.412,6.03-13.443,13.443-13.443C260.143,40.076,263.5,36.718,263.5,32.576z"/>
			<path d="M174.727,289.004c0,4.142,3.357,7.5,7.5,7.5h147.547c4.143,0,7.5-3.358,7.5-7.5c0-4.142-3.357-7.5-7.5-7.5H182.227     C178.084,281.504,174.727,284.862,174.727,289.004z"/>
			<path d="M491.794,285.65c-12.183-24.365-18.622-51.643-18.622-78.885v-24.538c0-9.488-7.719-17.207-17.207-17.207H303.079     c-4.143,0-7.5,3.358-7.5,7.5c0,4.142,3.357,7.5,7.5,7.5h152.886c1.217,0,2.207,0.99,2.207,2.207v24.538     c0,29.559,6.987,59.156,20.206,85.593C490.561,316.723,497,344.001,497,371.243v24.538c0,1.217-0.99,2.207-2.207,2.207h-60.507     c-4.143,0-7.5,3.358-7.5,7.5c0,4.142,3.357,7.5,7.5,7.5h60.507c9.488,0,17.207-7.719,17.207-17.207v-24.538     C512,341.685,505.013,312.087,491.794,285.65z"/>
			<path d="M405.811,397.988H276.036l1.699-68.48h26.8c4.143,0,7.5-3.358,7.5-7.5c0-4.142-3.357-7.5-7.5-7.5h-97.07     c-4.143,0-7.5,3.358-7.5,7.5c0,4.142,3.357,7.5,7.5,7.5h26.8l1.699,68.48H56.035c-1.217,0-2.207-0.99-2.207-2.207v-24.538     c0-29.558-6.987-59.156-20.206-85.593C21.439,261.285,15,234.007,15,206.765v-24.538c0-1.217,0.99-2.207,2.207-2.207h58.242     c4.143,0,7.5-3.358,7.5-7.5c0-4.142-3.357-7.5-7.5-7.5H17.207C7.719,165.02,0,172.739,0,182.227v24.538     c0,29.558,6.987,59.156,20.206,85.594c12.183,24.365,18.622,51.643,18.622,78.885v24.538c0,9.488,7.719,17.207,17.207,17.207     h180.301l2.034,81.944c0.196,9.411,8.013,17.067,17.425,17.067h0.41c9.412,0,17.23-7.656,17.425-17.037l2.034-81.975h130.148     c4.143,0,7.5-3.358,7.5-7.5C413.312,401.346,409.954,397.988,405.811,397.988z M258.635,494.621     c-0.028,1.312-1.117,2.379-2.429,2.379h-0.41c-1.312,0-2.402-1.067-2.429-2.409L249.27,329.51h13.46L258.635,494.621z"/>
		</g>
	</g>
</g>
<g>
</g>
<g>
</g>
<g>
</g>
<g>
</g>
<g>
</g>
<g>
</g>
<g>
</g>
<g>
</g>
<g>
</g>
<g>
</g>
<g>
</g>
<g>
</g>
<g>
</g>
<g>
</g>
<g>
</g>
</svg>
