<?xml version="1.0" encoding="iso-8859-1"?>
<!-- Generator: Adobe Illustrator 19.0.0, SVG Export Plug-In . SVG Version: 6.00 Build 0)  -->
<svg xmlns="http://www.w3.org/2000/svg" xmlns:xlink="http://www.w3.org/1999/xlink" version="1.1" id="Capa_1" x="0px" y="0px" viewBox="0 0 512 512" style="enable-background:new 0 0 512 512;" xml:space="preserve">
<g>
	<g>
		<g>
			<path d="M345.821,57.333c-2.929,2.93-2.929,7.679,0,10.608c2.929,2.928,7.679,2.928,10.607,0     c11.7-11.701,27.256-18.144,43.802-18.144s32.102,6.443,43.802,18.144c1.464,1.464,3.384,2.196,5.303,2.196     c1.919,0,3.839-0.732,5.303-2.196c2.929-2.93,2.929-7.679,0-10.608c-14.533-14.533-33.856-22.537-54.41-22.537     C379.675,34.796,360.354,42.8,345.821,57.333z"/>
			<path d="M479.264,32.709c-43.579-43.577-114.487-43.577-158.066,0c-29.525,29.524-39.048,71.59-28.567,109.205L4.325,481.753     c-6.142,7.24-5.691,18.167,1.027,24.879c3.55,3.546,8.277,5.342,13.014,5.342c4.231,0,8.472-1.434,11.889-4.334l156.054-132.468     c3.157-2.68,3.545-7.414,0.864-10.572c-2.68-3.158-7.414-3.546-10.572-0.864L20.547,496.204     c-1.336,1.132-3.355,1.053-4.594-0.186c-1.252-1.25-1.334-3.211-0.189-4.56l282.774-333.319     c5.384,11.835,12.937,22.916,22.659,32.638c9.626,9.625,20.651,17.204,32.486,22.642L197.955,345.611     c-3.157,2.68-3.545,7.414-0.864,10.572c2.679,3.157,7.413,3.546,10.572,0.864l162.182-137.669     c26.393,7.472,55.271,5.121,81.001-7.951c3.693-1.876,5.166-6.391,3.29-10.084c-1.875-3.693-6.392-5.165-10.084-3.29     c-37.429,19.013-82.537,11.827-112.247-17.884c-37.731-37.731-37.731-99.121,0-136.852s99.122-37.731,136.852,0     c37.731,37.731,37.731,99.121,0,136.852c-2.929,2.929-2.929,7.678,0,10.608c2.928,2.928,7.678,2.928,10.607,0     C500.374,169.666,512,141.598,512,111.743C512,81.888,500.374,53.82,479.264,32.709z"/>
		</g>
	</g>
</g>
<g>
</g>
<g>
</g>
<g>
</g>
<g>
</g>
<g>
</g>
<g>
</g>
<g>
</g>
<g>
</g>
<g>
</g>
<g>
</g>
<g>
</g>
<g>
</g>
<g>
</g>
<g>
</g>
<g>
</g>
</svg>
