<?xml version="1.0" encoding="iso-8859-1"?>
<!-- Generator: Adobe Illustrator 19.0.0, SVG Export Plug-In . SVG Version: 6.00 Build 0)  -->
<svg xmlns="http://www.w3.org/2000/svg" xmlns:xlink="http://www.w3.org/1999/xlink" version="1.1" id="Capa_1" x="0px" y="0px" viewBox="0 0 512.002 512.002" style="enable-background:new 0 0 512.002 512.002;" xml:space="preserve">
<g>
	<g>
		<g>
			<path d="M103.96,33.542c-3.596-2.053-8.178-0.8-10.231,2.799l-1.356,2.378c-2.053,3.598-0.8,8.178,2.799,10.23     c1.172,0.669,2.449,0.986,3.709,0.986c2.606,0,5.138-1.359,6.522-3.785l1.356-2.378C108.812,40.175,107.559,35.595,103.96,33.542     z"/>
			<path d="M255.519,29.346c-2.945-2.913-7.695-2.886-10.607,0.062l-1.919,1.941c-2.912,2.946-2.884,7.694,0.062,10.606     c1.462,1.445,3.367,2.166,5.273,2.166c1.934,0,3.867-0.743,5.334-2.228l1.919-1.941     C258.492,37.006,258.465,32.258,255.519,29.346z"/>
			<path d="M415.114,5.06c-11.565-3.139-23.659-1.559-34.053,4.443c-10.523,6.075-18.043,15.934-21.174,27.759     c-5.758,21.746,5.169,44.114,24.811,53.167l-38.279,144.068c-5.753-1.003-11.667-1.526-17.699-1.526h-44.549     c-4.143,0-7.5,3.357-7.5,7.5s3.357,7.5,7.5,7.5h44.549c4.702,0,9.322,0.372,13.829,1.09l-8.756,32.952     c-8.071,1.371-15.53,5.479-21.059,11.731c-2.746,3.103-2.455,7.842,0.648,10.586c3.102,2.746,7.844,2.456,10.586-0.648     c4.035-4.561,9.803-7.176,15.827-7.176c6.023,0,11.792,2.615,15.826,7.176c2.742,3.102,7.483,3.394,10.586,0.648     c3.102-2.744,3.393-7.483,0.648-10.586c-4.762-5.384-10.954-9.178-17.735-11.004l7.986-30.056     c34.977,11.989,60.219,45.499,60.219,84.856c0,6.569-5.258,11.914-11.721,11.914H173.109c-4.142,0-7.5,3.357-7.5,7.5     s3.357,7.5,7.5,7.5h228.87v23.828H110.024v-23.828h35.695c4.142,0,7.5-3.357,7.5-7.5s-3.357-7.5-7.5-7.5h-39.321     c-6.463,0-11.721-5.345-11.721-11.914c0-49.389,39.748-89.57,88.606-89.57h65.218v34.329     c-7.492,1.603-14.374,5.581-19.561,11.443c-2.745,3.103-2.455,7.841,0.647,10.587c3.102,2.746,7.842,2.455,10.587-0.647     c4.036-4.561,9.804-7.177,15.827-7.177c6.023,0,11.792,2.616,15.827,7.177c2.744,3.102,7.484,3.391,10.587,0.647     c3.102-2.745,3.391-7.484,0.647-10.587c-5.187-5.862-12.069-9.839-19.561-11.443V90.409c21.295-3.618,37.57-22.369,37.57-44.889     c0-25.1-20.218-45.52-45.07-45.52s-45.071,20.42-45.07,45.519c0,22.52,16.275,41.272,37.57,44.889v142.561h-65.218     c-6.004,0-11.893,0.519-17.621,1.513L127.307,90.426c19.639-9.054,30.566-31.422,24.808-53.166     c-3.131-11.825-10.65-21.684-21.174-27.759C120.545,3.5,108.454,1.922,96.888,5.058C72.91,11.559,58.621,36.556,65.035,60.779     c3.131,11.825,10.65,21.684,21.174,27.759c8.183,4.724,17.412,6.709,26.619,5.808L151.11,238.13     c-41.425,13.692-71.434,53.082-71.434,99.41c0,10.747,6.284,20.041,15.347,24.353v28.388c-5.417,2.893-9.113,8.625-9.113,15.209     v48.535c0,6.584,3.697,12.316,9.113,15.209v25.561c0,9.488,7.676,17.207,17.111,17.207h287.734     c9.435,0,17.111-7.719,17.111-17.207v-25.561c5.417-2.893,9.113-8.625,9.113-15.209V405.49c0-6.584-3.697-12.316-9.113-15.209     v-28.388c9.063-4.312,15.347-13.607,15.347-24.353c0-46.304-29.967-85.673-71.359-99.386l38.211-143.807     c9.201,0.898,18.435-1.085,26.615-5.809c10.523-6.075,18.043-15.934,21.174-27.759C453.381,36.556,439.092,11.559,415.114,5.06z      M225.931,45.52c0-16.829,13.489-30.52,30.07-30.52s30.07,13.69,30.07,30.519c0,16.829-13.489,30.519-30.07,30.519     S225.931,62.349,225.931,45.52z M116.368,78.492c-0.074,0.02-0.147,0.041-0.22,0.062c-7.624,2.015-15.586,0.95-22.44-3.007     c-7.038-4.063-12.071-10.671-14.173-18.608c-4.31-16.275,5.237-33.054,21.279-37.405c2.58-0.699,5.2-1.045,7.804-1.045     c5.149,0,10.235,1.353,14.824,4.002c7.038,4.063,12.071,10.671,14.173,18.608c4.293,16.213-5.162,32.926-21.093,37.354     C116.471,78.466,116.419,78.479,116.368,78.492z M411.091,454.023c0,1.217-0.946,2.207-2.11,2.207h-54.31     c-4.143,0-7.5,3.357-7.5,7.5s3.357,7.5,7.5,7.5h47.307v23.563c0,1.217-0.946,2.207-2.11,2.207H112.134     c-1.164,0-2.11-0.99-2.11-2.207V471.23h216.134c4.142,0,7.5-3.357,7.5-7.5s-3.357-7.5-7.5-7.5H103.021     c-1.164,0-2.11-0.99-2.11-2.207v-48.535c0-1.217,0.946-2.207,2.11-2.207h305.96c1.164,0,2.11,0.99,2.11,2.207V454.023z      M432.467,56.939c-2.101,7.936-7.135,14.545-14.173,18.608c-6.912,3.989-14.947,5.038-22.628,2.957     c-16.043-4.35-25.588-21.13-21.279-37.405c2.101-7.936,7.135-14.545,14.173-18.608c4.59-2.649,9.675-4.002,14.824-4.002     c2.604,0,5.224,0.346,7.804,1.045C427.23,23.885,436.776,40.664,432.467,56.939z"/>
			<path d="M418.273,36.341c-2.053-3.599-6.635-4.852-10.231-2.799c-3.599,2.052-4.852,6.632-2.799,10.23l1.356,2.378     c1.384,2.426,3.916,3.785,6.522,3.785c1.26,0,2.537-0.317,3.709-0.986c3.599-2.052,4.852-6.632,2.799-10.23L418.273,36.341z"/>
			<path d="M172.207,281.504c-10.318,0-20.181,4.461-27.06,12.238c-2.745,3.103-2.454,7.842,0.648,10.586     c3.103,2.745,7.843,2.455,10.586-0.648c4.034-4.561,9.803-7.176,15.826-7.176c6.024,0,11.792,2.615,15.827,7.176     c1.481,1.676,3.546,2.531,5.62,2.531c1.766,0,3.539-0.62,4.966-1.883c3.103-2.744,3.394-7.483,0.648-10.586     C192.389,285.965,182.525,281.504,172.207,281.504z"/>
		</g>
	</g>
</g>
<g>
</g>
<g>
</g>
<g>
</g>
<g>
</g>
<g>
</g>
<g>
</g>
<g>
</g>
<g>
</g>
<g>
</g>
<g>
</g>
<g>
</g>
<g>
</g>
<g>
</g>
<g>
</g>
<g>
</g>
</svg>
