<?xml version="1.0" encoding="iso-8859-1"?>
<!-- Generator: Adobe Illustrator 19.0.0, SVG Export Plug-In . SVG Version: 6.00 Build 0)  -->
<svg xmlns="http://www.w3.org/2000/svg" xmlns:xlink="http://www.w3.org/1999/xlink" version="1.1" id="Capa_1" x="0px" y="0px" viewBox="0 0 512.001 512.001" style="enable-background:new 0 0 512.001 512.001;" xml:space="preserve">
<g>
	<g>
		<g>
			<path d="M176.626,363.754L20.583,496.23c-1.337,1.134-3.355,1.052-4.594-0.186c-1.252-1.25-1.333-3.211-0.189-4.56     l324.148-382.143c2.68-3.159,2.292-7.893-0.867-10.572c-3.159-2.68-7.89-2.292-10.57,0.867L4.362,481.779     c-6.141,7.24-5.691,18.168,1.027,24.879c3.55,3.547,8.276,5.343,13.013,5.343c4.231,0,8.472-1.434,11.888-4.335L186.333,375.19     c3.157-2.681,3.545-7.414,0.864-10.573C184.518,361.46,179.785,361.072,176.626,363.754z"/>
			<path d="M36.621,160.594h97.07c11.922,0,21.621,9.701,21.621,21.624c0,4.143,3.358,7.501,7.5,7.501c4.142,0,7.5-3.358,7.5-7.501     c0-20.196-16.428-36.626-36.621-36.626h-97.07c-11.922,0-21.621-9.701-21.621-21.624v-19.417     c0-11.924,9.699-21.624,21.621-21.624h85.046c4.142,0,7.5-3.358,7.5-7.501s-3.358-7.501-7.5-7.501H36.621     C16.428,67.925,0,84.355,0,104.551v19.417C0,144.164,16.428,160.594,36.621,160.594z"/>
			<path d="M492.566,19.374c-25.848-25.821-67.918-25.832-93.783-0.026c-9.366,9.345-18.457,19.203-27.022,29.3l-16.352,19.277     H153.667c-4.142,0-7.5,3.358-7.5,7.501s3.358,7.501,7.5,7.501h264.726l-5.744,5.738c-2.931,2.928-2.934,7.677-0.007,10.608     c2.928,2.932,7.677,2.933,10.606,0.007l34.671-34.634c2.931-2.928,2.934-7.677,0.007-10.608     c-2.928-2.932-7.677-2.933-10.606-0.007l-13.908,13.894H375.08l8.119-9.572c8.298-9.782,17.105-19.332,26.179-28.385     c20.019-19.972,52.581-19.966,72.59,0.021c9.698,9.688,15.037,22.568,15.033,36.268c-0.004,13.699-5.35,26.576-15.054,36.258     l-0.394,0.393c-8.791,8.772-18.047,17.293-27.512,25.328l-256.063,217.39c-3.158,2.681-3.545,7.414-0.864,10.573     c2.681,3.16,7.413,3.546,10.571,0.864L427.11,170.776v302.692c0,11.924-9.699,21.624-21.621,21.624c-4.143,0-7.5,3.358-7.5,7.501     s3.357,7.501,7.5,7.501c20.193,0,36.621-16.43,36.621-36.626V158.043l21.639-18.371c9.77-8.293,19.324-17.089,28.398-26.144     l0.394-0.393c12.544-12.515,19.455-29.163,19.46-46.875C512.006,48.548,505.104,31.897,492.566,19.374z"/>
		</g>
	</g>
</g>
<g>
</g>
<g>
</g>
<g>
</g>
<g>
</g>
<g>
</g>
<g>
</g>
<g>
</g>
<g>
</g>
<g>
</g>
<g>
</g>
<g>
</g>
<g>
</g>
<g>
</g>
<g>
</g>
<g>
</g>
</svg>
