<?xml version="1.0" encoding="iso-8859-1"?>
<!-- Generator: Adobe Illustrator 19.0.0, SVG Export Plug-In . SVG Version: 6.00 Build 0)  -->
<svg xmlns="http://www.w3.org/2000/svg" xmlns:xlink="http://www.w3.org/1999/xlink" version="1.1" id="Capa_1" x="0px" y="0px" viewBox="0 0 512 512" style="enable-background:new 0 0 512 512;" xml:space="preserve">
<g>
	<g>
		<g>
			<path d="M364.777,466.053L263.5,429.35v-55.19h15.625c4.143,0,7.5-3.357,7.5-7.5s-3.357-7.5-7.5-7.5h-93.551     c-1.66,0-3.011-1.518-3.011-3.384v-34.782c0-34.949,9.609-68.979,27.787-98.41c0.731-1.185,1.119-2.549,1.119-3.941     c0-32.544-4.959-64.729-14.739-95.66l-14.167-44.808V60.621c0-1.716,1.145-3.161,2.664-3.361l48.628-6.408     c3.731-0.491,6.52-3.672,6.52-7.436V18.384c0-1.866,1.351-3.384,3.011-3.384h25.227c1.66,0,3.012,1.518,3.012,3.384v25.032     c0,3.764,2.789,6.944,6.521,7.436l48.628,6.408c1.519,0.2,2.664,1.646,2.664,3.361v17.554l-14.168,44.808     c-9.779,30.934-14.738,63.118-14.738,95.66c0,1.393,0.388,2.757,1.119,3.941c18.179,29.431,27.787,63.46,27.787,98.41v34.782     c0,1.866-1.352,3.384-3.012,3.384h-20.113c-4.143,0-7.5,3.357-7.5,7.5s3.357,7.5,7.5,7.5h20.113     c9.932,0,18.012-8.247,18.012-18.384v-34.782c0-37.009-9.986-73.073-28.899-104.447c0.208-30.292,4.927-60.237,14.034-89.043     l14.517-45.911c0.231-0.731,0.349-1.493,0.349-2.261V60.621c0-9.215-6.752-17.054-15.705-18.232l-42.107-5.549V18.384     C286.625,8.247,278.545,0,268.613,0h-25.227c-9.932,0-18.011,8.247-18.011,18.384V36.84l-42.108,5.549     c-8.953,1.179-15.705,9.018-15.705,18.232v18.711c0,0.768,0.118,1.529,0.349,2.261l14.517,45.911     c9.107,28.804,13.825,58.749,14.033,89.043c-18.913,31.374-28.899,67.439-28.899,104.447v34.782     c0,10.137,8.08,18.384,18.011,18.384H248.5v55.189l-101.111,36.643c-0.131,0.044-0.261,0.092-0.389,0.143     c-6.589,2.496-11,8.947-11,16.131v12.527c0,9.488,7.57,17.207,16.875,17.207h206.25c9.305,0,16.875-7.719,16.875-17.207v-12.527     C376,475.001,371.49,468.485,364.777,466.053z M361,494.793L361,494.793c0,1.217-0.841,2.207-1.875,2.207h-206.25     c-1.034,0-1.875-0.99-1.875-2.207v-12.527c0-0.645,0.249-1.249,0.65-1.662H278.5c4.143,0,7.5-3.357,7.5-7.5s-3.357-7.5-7.5-7.5     h-86.014L256,442.587l103.666,37.567c0.785,0.285,1.334,1.153,1.334,2.111V494.793z"/>
			<path d="M207.405,328.494c4.142,0,7.5-3.357,7.5-7.5c0-31.5,7.923-62.632,22.912-90.029c4.122-7.536,6.162-15.95,5.9-24.333     c-0.129-4.141-3.602-7.403-7.73-7.262c-4.14,0.128-7.391,3.59-7.262,7.73c0.179,5.712-1.228,11.475-4.067,16.665     c-16.193,29.599-24.752,63.22-24.752,97.229C199.906,325.137,203.263,328.494,207.405,328.494z"/>
			<path d="M233.924,185.08c0.31,0,0.623-0.02,0.938-0.059c4.111-0.513,7.027-4.261,6.514-8.371     c-2.484-19.906-6.639-38.009-12.348-53.812l-14.471-45.766c-1.248-3.95-5.462-6.137-9.412-4.891     c-3.95,1.249-6.139,5.463-4.89,9.412l14.517,45.911c0.031,0.099,0.064,0.196,0.099,0.294c5.356,14.788,9.266,31.849,11.62,50.708     C226.965,182.301,230.196,185.078,233.924,185.08z"/>
		</g>
	</g>
</g>
<g>
</g>
<g>
</g>
<g>
</g>
<g>
</g>
<g>
</g>
<g>
</g>
<g>
</g>
<g>
</g>
<g>
</g>
<g>
</g>
<g>
</g>
<g>
</g>
<g>
</g>
<g>
</g>
<g>
</g>
</svg>
