<?xml version="1.0" encoding="iso-8859-1"?>
<!-- Generator: Adobe Illustrator 19.0.0, SVG Export Plug-In . SVG Version: 6.00 Build 0)  -->
<svg xmlns="http://www.w3.org/2000/svg" xmlns:xlink="http://www.w3.org/1999/xlink" version="1.1" id="Capa_1" x="0px" y="0px" viewBox="0 0 512 512" style="enable-background:new 0 0 512 512;" xml:space="preserve">
<g>
	<g>
		<path d="M327.595,232.969c-4.143,0-7.5,3.358-7.5,7.5v31.062c0,4.142,3.357,7.5,7.5,7.5c4.142,0,7.5-3.358,7.5-7.5v-31.062    C335.095,236.327,331.738,232.969,327.595,232.969z"/>
	</g>
</g>
<g>
	<g>
		<path d="M359.952,224.232c-4.142,0-7.5,3.358-7.5,7.5v48.535c0,4.142,3.357,7.5,7.5,7.5s7.5-3.358,7.5-7.5v-48.535    C367.452,227.59,364.094,224.232,359.952,224.232z"/>
	</g>
</g>
<g>
	<g>
		<path d="M512,165.65V66.713C512,29.927,482.073,0,445.289,0c-1.914,0-3.831,0.172-5.699,0.511    c-0.407,0.074-0.796,0.187-1.173,0.321C436.102,0.294,433.695,0,431.219,0h-5.824c-7.672,0-14.717,2.734-20.214,7.279    C398.308,2.565,390.099,0,381.711,0c-9.591,0-18.424,3.281-25.457,8.768C348.989,3.089,340.069,0,330.747,0    c-4.429,0-8.695,0.705-12.7,1.997C314.512,0.678,310.798,0,306.97,0c-36.784,0-66.71,29.927-66.71,66.713v98.937    c0,5.882,1.629,11.639,4.712,16.65l5.727,9.306c-2.13,2.899-3.404,6.463-3.404,10.327v108.133c0,3.865,1.274,7.429,3.404,10.327    l-5.727,9.307c-3.083,5.01-4.712,10.767-4.712,16.649v13.596l-43.219-74.643l4.302-206.474    c10.627-8.002,17.513-20.719,17.513-35.017C218.855,19.654,199.201,0,175.043,0c-24.158,0-43.812,19.654-43.812,43.813    c0,14.298,6.886,27.015,17.513,35.017l2.66,127.66L84.495,90.934c0.76-1.906,1.397-3.875,1.892-5.903    c2.778-11.368,0.963-23.138-5.11-33.141S65.598,34.848,54.23,32.069c-11.37-2.779-23.139-0.963-33.14,5.11    C11.088,43.253,4.048,52.859,1.27,64.227c-2.778,11.368-0.963,23.138,5.11,33.141c6.074,10.003,15.679,17.042,27.047,19.82    c2.025,0.495,4.063,0.827,6.102,1.032l113.762,178.853l4.122,197.859c0.195,9.411,8.012,17.067,17.424,17.067h0.41    c9.413,0,17.229-7.656,17.424-17.066l2.742-131.633l44.844,70.503v11.483c0,36.786,29.927,66.713,66.711,66.713    c3.827,0,7.541-0.678,11.076-1.997c4.005,1.292,8.271,1.997,12.7,1.997c9.279,0,18.257-3.146,25.493-8.779    c7.035,5.493,15.874,8.779,25.471,8.779c8.506,0,16.615-2.552,23.471-7.279c5.496,4.545,12.541,7.279,20.213,7.279h5.824    c2.422,0,4.778-0.281,7.046-0.797c2.298,0.519,4.651,0.797,7.023,0.797C482.073,512,512,482.073,512,445.287v-92.616    c0-4.646-1.046-9.324-3.023-13.526l-8.3-17.639c2.663-3.071,4.287-7.066,4.287-11.44V201.934c0-3.864-1.274-7.428-3.404-10.327    l5.726-9.306C510.37,177.291,512,171.533,512,165.65z M36.989,102.618c-7.476-1.827-13.793-6.457-17.787-13.035    c-3.995-6.579-5.188-14.319-3.361-21.795C17.668,60.312,22.296,53.995,28.876,50c4.566-2.772,9.692-4.196,14.901-4.196    c2.295,0,4.606,0.276,6.893,0.835c7.476,1.827,13.792,6.457,17.787,13.035c3.995,6.579,5.188,14.319,3.361,21.794    c-1.827,7.476-6.456,13.793-13.035,17.788C52.204,103.251,44.464,104.444,36.989,102.618z M56.294,116.63    c3.56-1.063,7.013-2.572,10.272-4.552c3.259-1.979,6.197-4.339,8.782-7.006l76.174,131.556c0.16,0.276,0.338,0.533,0.525,0.781    l0.641,30.77L56.294,116.63z M180.961,336.947c-0.126,0.735-0.144,1.487-0.046,2.235l-3.238,155.439    c-0.027,1.312-1.117,2.378-2.429,2.378h-0.41c-1.312,0-2.401-1.067-2.429-2.379L163.9,86.185c3.56,0.937,7.293,1.44,11.143,1.44    c3.85,0,7.583-0.504,11.143-1.441L180.961,336.947z M175.043,72.625c-15.887,0-28.812-12.925-28.812-28.813S159.156,15,175.043,15    c15.887,0,28.812,12.925,28.812,28.813S190.93,72.625,175.043,72.625z M240.259,405.856l-44.281-69.617l0.459-22.041    l43.822,75.682V405.856z M497.001,66.713v98.937h0c0,3.105-0.86,6.144-2.488,8.789l-6.178,10.039    c-0.29-0.014-0.576-0.044-0.87-0.044h-24.479V31.768c0-5.351-1.335-10.393-3.682-14.822    C481.027,23.073,497.001,43.056,497.001,66.713z M355.237,41.475c0-14.598,11.876-26.475,26.474-26.475    c5.15,0,10.182,1.529,14.46,4.319c-1.635,3.825-2.543,8.032-2.543,12.448v94.481c0,4.142,3.357,7.5,7.5,7.5s7.5-3.358,7.5-7.5    v-94.48c0-9.246,7.521-16.768,16.767-16.768h5.824c9.246,0,16.767,7.522,16.767,16.768v152.666h-39.358v-30.681    c0-4.142-3.357-7.5-7.5-7.5c-4.142,0-7.5,3.358-7.5,7.5v30.681h-38.391V41.475z M255.259,66.713    c0-25.542,18.618-46.805,42.993-50.963c-5.613,7.076-8.978,16.012-8.978,25.725v25.238c0,4.142,3.357,7.5,7.5,7.5    s7.5-3.358,7.5-7.5V41.475C304.274,26.877,316.15,15,330.748,15c5.618,0,11.004,1.761,15.49,5.007c-3.806,6.266-6,13.615-6,21.467    v142.959h-35.964v-89.57c0-4.142-3.357-7.5-7.5-7.5c-4.142,0-7.5,3.358-7.5,7.5v89.57h-24.48c-0.293,0-0.58,0.03-0.869,0.044    l-6.179-10.039c-1.627-2.645-2.487-5.684-2.487-8.789V66.713z M255.259,445.287V346.35c0-3.105,0.86-6.144,2.487-8.788    l6.179-10.04c0.29,0.014,0.576,0.044,0.869,0.044h24.48v142.959c0,9.713,3.365,18.649,8.978,25.725    C273.877,492.092,255.259,470.83,255.259,445.287z M381.711,497c-14.598,0-26.474-11.876-26.474-26.475V422.97    c0-4.142-3.357-7.5-7.5-7.5s-7.5,3.358-7.5,7.5v47.555c0,7.851,2.193,15.199,5.999,21.465c-4.476,3.224-9.898,5.01-15.489,5.01    c-14.597,0-26.474-11.876-26.474-26.475V327.566h35.964v64.99c0,4.142,3.357,7.5,7.5,7.5c4.142,0,7.5-3.358,7.5-7.5v-64.99h38.391    v152.666c0,4.424,0.911,8.638,2.552,12.468C391.915,495.496,386.929,497,381.711,497z M264.794,312.567v-0.001    c-1.379,0-2.5-1.122-2.5-2.5V201.934c0-1.378,1.121-2.5,2.5-2.5h222.67c1.379,0,2.5,1.122,2.5,2.5v108.133    c0,1.378-1.121,2.5-2.5,2.5H264.794z M447.986,480.232c0,9.246-7.521,16.768-16.767,16.768h-5.824    c-9.246,0-16.767-7.522-16.767-16.768V327.566h39.358V480.232z M497.002,445.287h-0.001c0,23.657-15.973,43.64-37.697,49.767    c2.346-4.428,3.682-9.471,3.682-14.822V327.566h23.966l8.454,17.966c1.044,2.218,1.596,4.686,1.596,7.139V445.287z"/>
	</g>
</g>
<g>
	<g>
		<path d="M424.663,232.969c-4.142,0-7.5,3.358-7.5,7.5v31.062c0,4.142,3.357,7.5,7.5,7.5s7.5-3.358,7.5-7.5v-31.062    C432.163,236.327,428.806,232.969,424.663,232.969z"/>
	</g>
</g>
<g>
	<g>
		<path d="M392.308,224.232c-4.143,0-7.5,3.358-7.5,7.5v48.535c0,4.142,3.357,7.5,7.5,7.5c4.142,0,7.5-3.358,7.5-7.5v-48.535    C399.807,227.59,396.45,224.232,392.308,224.232z"/>
	</g>
</g>
<g>
</g>
<g>
</g>
<g>
</g>
<g>
</g>
<g>
</g>
<g>
</g>
<g>
</g>
<g>
</g>
<g>
</g>
<g>
</g>
<g>
</g>
<g>
</g>
<g>
</g>
<g>
</g>
<g>
</g>
</svg>
