<?xml version="1.0" encoding="iso-8859-1"?>
<!-- Generator: Adobe Illustrator 19.0.0, SVG Export Plug-In . SVG Version: 6.00 Build 0)  -->
<svg xmlns="http://www.w3.org/2000/svg" xmlns:xlink="http://www.w3.org/1999/xlink" version="1.1" id="Capa_1" x="0px" y="0px" viewBox="0 0 512.001 512.001" style="enable-background:new 0 0 512.001 512.001;" xml:space="preserve">
<g>
	<g>
		<g>
			<path d="M511.805,304.639c-1.117-33.977-7.387-67.459-18.644-99.545l-20.826-59.365h12.752c14.84,0,26.913-11.941,26.913-26.619     v-6.493c0-14.677-12.073-26.617-26.914-26.617h-67.298c-0.123,0-0.246,0.003-0.368,0.009     c-40.482,0.236-80.903,5.179-120.193,14.698c-4.025,0.976-6.498,5.029-5.522,9.056c0.976,4.023,5.022,6.498,9.056,5.522     c39.119-9.478,79.394-14.285,119.707-14.285c12.13,0,22.922,7.532,26.854,18.744l31.684,90.314     c10.908,31.096,16.914,63.563,17.85,96.504c0.013,0.429,0.062,0.853,0.145,1.268v54.038c0,6.07-5.092,11.009-11.351,11.009     h-24.126v-38.87c0-7.352-2.973-14.188-8.371-19.252c-5.425-5.088-12.807-7.736-20.286-7.254L29.429,333.335v-6.277     c0.167-0.539,0.274-1.104,0.315-1.689c2.147-30.448,15.439-59.107,37.428-80.695c58.019-56.967,130.212-99.397,208.774-122.705     c3.972-1.179,6.235-5.353,5.058-9.323c-1.178-3.972-5.354-6.235-9.323-5.058c-25.204,7.478-49.776,16.869-73.465,28.027     l-6.617-12.527c-4.365-8.269-14.737-11.524-23.12-7.256l-34.47,17.549c-4.123,2.099-7.158,5.667-8.547,10.046     c-1.376,4.342-0.961,8.955,1.169,12.988l7.857,14.88c-27.916,18.318-54.029,39.311-77.826,62.676     C32.597,257.6,17.84,288.815,14.956,322.087c-0.341,0.857-0.527,1.791-0.527,2.768v11.739C5.83,341.061,0,349.975,0,360.113     v39.271c0,14.677,12.073,26.617,26.914,26.617h388.281c14.841,0,26.914-11.94,26.914-26.617v-11.506h11.914     c0.246,0,0.488-0.012,0.728-0.035c0.24,0.023,0.482,0.035,0.729,0.035h30.17c14.529,0,26.351-11.667,26.351-26.009v-55.524     C512.001,305.765,511.934,305.194,511.805,304.639z M461.476,114.781c-1.807-5.152-4.549-9.798-8.001-13.779h31.61     c6.569,0,11.914,5.211,11.914,11.617v6.493c0,6.406-5.345,11.618-11.914,11.618h-18.013L461.476,114.781z M139.761,147.957     c0.116-0.367,0.394-0.875,1.053-1.211l34.47-17.549c0.337-0.171,0.7-0.252,1.06-0.252c0.817,0,1.608,0.419,1.992,1.146     l6.397,12.112c-12.807,6.489-25.335,13.504-37.544,21.018l-7.294-13.812C139.588,148.829,139.652,148.3,139.761,147.957z      M446.523,372.878h-338.07c-4.143,0-7.5,3.357-7.5,7.5s3.357,7.5,7.5,7.5h318.656v11.506c0,6.406-5.345,11.617-11.914,11.617     H26.914c-6.569,0-11.914-5.211-11.914-11.617v-11.506h63.847c4.143,0,7.5-3.357,7.5-7.5s-3.357-7.5-7.5-7.5H15v-12.765     c0-6.069,4.889-11.137,11.13-11.536l407.695-26.106c3.392-0.227,6.615,0.928,9.065,3.226c2.343,2.197,3.633,5.149,3.633,8.312     V372.878z"/>
			<path d="M85.156,287.1c-4.143,0-7.5,3.357-7.5,7.5s3.357,7.5,7.5,7.5h58.242c4.143,0,7.5-3.357,7.5-7.5s-3.357-7.5-7.5-7.5     H85.156z"/>
			<path d="M338.047,250.819c0,4.143,3.357,7.5,7.5,7.5h90.797c4.835,0,9.383-2.342,12.164-6.265     c2.729-3.849,3.432-8.795,1.877-13.231l-24.292-69.245c-4.869-13.883-18.154-23.21-33.057-23.21     c-89.855,0-177.909,30.456-247.941,85.757c-4.961,3.919-6.83,10.296-4.764,16.248c2.099,6.042,7.614,9.946,14.053,9.946h163.983     c4.143,0,7.5-3.357,7.5-7.5s-3.357-7.5-7.5-7.5l-50.984-0.002v-5.847c0-6.405,5.345-11.617,11.914-11.617h77.656     c6.569,0,11.914,5.212,11.914,11.617v5.849h-23.32v0C341.404,243.319,338.047,246.676,338.047,250.819z M356.953,210.855h-77.656     c-14.841,0-26.914,11.94-26.914,26.617v5.847l-97.252-0.003c67.275-52.85,151.726-81.946,237.905-81.946     c8.542,0,16.138,5.295,18.902,13.175l24.128,68.776h-52.199v-5.849C383.867,222.795,371.794,210.855,356.953,210.855z"/>
		</g>
	</g>
</g>
<g>
</g>
<g>
</g>
<g>
</g>
<g>
</g>
<g>
</g>
<g>
</g>
<g>
</g>
<g>
</g>
<g>
</g>
<g>
</g>
<g>
</g>
<g>
</g>
<g>
</g>
<g>
</g>
<g>
</g>
</svg>
