<?xml version="1.0" encoding="iso-8859-1"?>
<!-- Generator: Adobe Illustrator 19.0.0, SVG Export Plug-In . SVG Version: 6.00 Build 0)  -->
<svg xmlns="http://www.w3.org/2000/svg" xmlns:xlink="http://www.w3.org/1999/xlink" version="1.1" id="Capa_1" x="0px" y="0px" viewBox="0 0 512 512" style="enable-background:new 0 0 512 512;" xml:space="preserve">
<g>
	<g>
		<path d="M504.768,183.439l-77.033-35.163c-3.769-1.72-8.217-0.06-9.937,3.708c-1.72,3.768-0.06,8.217,3.708,9.937l75.043,34.255    l-18.973,77.06l-62.76,17.308l-17.311-13.355l-26.717-99.196c-0.506-1.881-1.726-3.491-3.398-4.49l-13.646-8.142    c6.978-7.938,12.792-16.876,17.226-26.506l23.268,10.621c3.767,1.719,8.216,0.06,9.937-3.708c1.72-3.768,0.06-8.217-3.708-9.937    l-30.228-13.798c-0.056-0.026-0.112-0.052-0.168-0.077l-27.753-12.668c-0.072-0.034-0.145-0.067-0.218-0.099l-1.987-0.907    c-2.182-0.996-4.506-1.501-6.906-1.501c-2.293,0-4.512,0.455-6.552,1.331L263.499,80.27v-1.697l20.199-20.055    c5.888-5.845,9.13-13.62,9.13-21.894c0-20.195-16.523-36.623-36.832-36.623c-20.309,0-36.832,16.428-36.832,36.621    c0,4.142,3.358,7.5,7.5,7.5c4.142,0,7.5-3.358,7.5-7.5c0-11.922,9.794-21.621,21.832-21.621c12.038,0,21.832,9.699,21.832,21.621    c0,4.246-1.668,8.241-4.698,11.249l-22.418,22.257c-1.486,1.475-2.257,3.468-2.213,5.483v4.655l-62.247,27.442    c-1.75-0.614-3.611-0.93-5.523-0.93c-2.38,0-4.685,0.496-6.849,1.474l-3.908,1.763c-0.06,0.026-0.118,0.053-0.177,0.08    l-27.822,12.556c-0.048,0.021-0.097,0.043-0.145,0.065L7.282,183.434c-5.434,2.453-8.346,8.425-6.923,14.2l19.862,80.67    c1.076,4.373,4.453,7.815,8.812,8.985l64.534,17.316l16.285,171.38c0.006,0.075,0.013,0.15,0.021,0.224l1.92,20.205    c0.844,8.885,8.239,15.586,17.2,15.586h255.966c8.962,0,16.356-6.701,17.2-15.586l1.921-20.212c0.007-0.07,0.014-0.14,0.02-0.209    l16.29-171.426l62.653-17.278c4.315-1.19,7.66-4.624,8.729-8.961l19.871-80.71C513.059,191.866,510.168,185.903,504.768,183.439z     M185.449,124.456l70.548-31.102l54.594,24.067c-12.099,5.769-25.331,8.771-38.949,8.771H242.31c-9.768,0-19.39-1.55-28.599-4.608    c-3.932-1.307-8.176,0.823-9.481,4.754c-1.306,3.931,0.823,8.176,4.754,9.481c10.736,3.565,21.948,5.373,33.326,5.373h29.332    c19.437,0,38.199-5.249,54.688-15.241c-11.354,19.043-32.127,31.144-55.106,31.144H240.55c-23.38,0-44.604-12.64-55.806-32.37    C184.981,124.648,185.216,124.558,185.449,124.456z M34.413,273.203l-18.958-76.999l125.634-56.696    c4.375,9.331,10.071,17.976,16.844,25.68l-13.454,8.393c-1.609,1.004-2.779,2.581-3.272,4.413l-26.755,99.341l-15.779,13.111    L34.413,273.203z M389.803,467.88h-45.229c-4.142,0-7.5,3.358-7.5,7.5c0,4.142,3.358,7.5,7.5,7.5h43.803l-1.151,12.116    c-0.108,1.143-1.083,2.005-2.268,2.005H128.993c-1.184,0-2.159-0.862-2.268-2.005l-1.151-12.116h192.308    c4.142,0,7.5-3.358,7.5-7.5c0-4.142-3.358-7.5-7.5-7.5H124.149l-15.773-165.995l17.492-14.535c1.19-0.99,2.046-2.323,2.449-3.818    l26.606-98.789l13.971-8.715c8.313,7.147,17.714,13.081,27.905,17.489c3.803,1.646,8.217-0.104,9.861-3.906    c1.644-3.801-0.104-8.216-3.906-9.861c-21.112-9.132-38.288-25.832-47.993-46.415l14.23-6.422    c12.904,27.325,40.714,45.181,71.558,45.181h30.674c31.245,0,59.189-18.156,71.92-45.942l14.182,6.473    c-5.738,12.45-14.153,23.56-24.606,32.421c-17.117,14.511-38.957,22.502-61.496,22.502H240.55c-5.152,0-10.327-0.417-15.381-1.238    c-4.085-0.666-7.942,2.11-8.606,6.199s2.111,7.942,6.199,8.606c5.848,0.951,11.833,1.433,17.788,1.433h30.674    c26.087,0,51.372-9.255,71.195-26.06c0.097-0.083,0.193-0.164,0.29-0.247l14.387,8.585l26.584,98.706    c0.427,1.584,1.361,2.985,2.66,3.987l19.193,14.808L389.803,467.88z"/>
	</g>
</g>
<g>
</g>
<g>
</g>
<g>
</g>
<g>
</g>
<g>
</g>
<g>
</g>
<g>
</g>
<g>
</g>
<g>
</g>
<g>
</g>
<g>
</g>
<g>
</g>
<g>
</g>
<g>
</g>
<g>
</g>
</svg>
