<?xml version="1.0" encoding="iso-8859-1"?>
<!-- Generator: Adobe Illustrator 19.0.0, SVG Export Plug-In . SVG Version: 6.00 Build 0)  -->
<svg xmlns="http://www.w3.org/2000/svg" xmlns:xlink="http://www.w3.org/1999/xlink" version="1.1" id="Capa_1" x="0px" y="0px" viewBox="0 0 512 512" style="enable-background:new 0 0 512 512;" xml:space="preserve">
<g>
	<g>
		<g>
			<path d="M179.314,385.369c-4.143,0-7.5,3.357-7.5,7.5v77.656c0,4.143,3.357,7.5,7.5,7.5s7.5-3.357,7.5-7.5v-77.656     C186.814,388.727,183.457,385.369,179.314,385.369z"/>
			<path d="M256.97,298.005c-12.165,0-22.061,9.896-22.061,22.061c0,12.165,9.896,22.061,22.061,22.061     c12.165,0,22.061-9.897,22.061-22.061S269.135,298.005,256.97,298.005z M256.97,327.127c-3.894,0-7.061-3.167-7.061-7.061     c0-3.894,3.167-7.061,7.061-7.061c3.894,0,7.061,3.167,7.061,7.061S260.864,327.127,256.97,327.127z"/>
			<path d="M334.627,478.025c4.143,0,7.5-3.357,7.5-7.5v-77.656c0-4.143-3.357-7.5-7.5-7.5s-7.5,3.357-7.5,7.5v77.656     C327.127,474.668,330.484,478.025,334.627,478.025z"/>
			<path d="M491.794,120.63c-12.183-24.364-18.622-51.643-18.622-78.885V17.207C473.172,7.719,465.453,0,455.965,0H113.307     c-4.143,0-7.5,3.357-7.5,7.5s3.357,7.5,7.5,7.5h136.164v21.621c0,4.143,3.357,7.5,7.5,7.5s7.5-3.357,7.5-7.5V15h191.494     c1.217,0,2.207,0.99,2.207,2.207v24.538c0,29.56,6.987,59.157,20.206,85.594C490.561,151.703,497,178.981,497,206.224v24.538     c0,1.217-0.99,2.207-2.207,2.207h-40.77c-4.143,0-7.5,3.357-7.5,7.5s3.357,7.5,7.5,7.5h40.77c9.488,0,17.207-7.719,17.207-17.207     v-24.538C512,176.664,505.013,147.066,491.794,120.63z"/>
			<path d="M424.254,232.968H264.47v-49.771c0-4.143-3.357-7.5-7.5-7.5s-7.5,3.357-7.5,7.5v90.541h-33.535V135.633     c0-20.067,14.476-36.814,33.535-40.348v56.202c0,4.143,3.357,7.5,7.5,7.5s7.5-3.357,7.5-7.5V65.742c0-4.143-3.357-7.5-7.5-7.5     s-7.5,3.357-7.5,7.5v14.357c-27.365,3.676-48.535,27.179-48.535,55.534v97.336h-144.9c-1.217,0-2.207-0.99-2.207-2.207v-24.538     c0-29.56-6.987-59.157-20.206-85.594C21.439,96.266,15,68.987,15,41.745V17.207C15,15.99,15.99,15,17.207,15h67.949     c4.143,0,7.5-3.357,7.5-7.5S89.299,0,85.156,0H17.207C7.719,0,0,7.719,0,17.207v24.538c0,29.56,6.987,59.157,20.207,85.594     c12.183,24.364,18.622,51.643,18.622,78.885v24.538c0,9.488,7.719,17.207,17.207,17.207h144.9v103.426h-21.621     c-30.897,0-56.035,25.138-56.035,56.035v48.535c0,30.897,25.138,56.035,56.035,56.035c30.897,0,56.035-25.138,56.035-56.035     V407.43c0-11.922,9.699-21.621,21.621-21.621s21.621,9.699,21.621,21.621v48.535c0,30.897,25.138,56.035,56.035,56.035     c30.897,0,56.035-25.138,56.035-56.035V407.43c0-30.897-25.138-56.035-56.035-56.035h-21.621V247.969h111.249     c4.143,0,7.5-3.357,7.5-7.5S428.397,232.969,424.254,232.968z M264.471,247.968h33.535v25.77h-33.535V247.968z M334.627,366.395     c22.627,0,41.035,18.408,41.035,41.035v48.535c0,22.627-18.408,41.035-41.035,41.035s-41.035-18.408-41.035-41.035V407.43     c0-20.193-16.428-36.621-36.621-36.621s-36.621,16.428-36.621,36.621v48.535c0,22.627-18.408,41.035-41.035,41.035     s-41.035-18.408-41.035-41.035V407.43c0-22.627,18.408-41.035,41.035-41.035h29.121c4.143,0,7.5-3.357,7.5-7.5v-70.156h82.07     v70.156c0,4.143,3.357,7.5,7.5,7.5H334.627z"/>
		</g>
	</g>
</g>
<g>
</g>
<g>
</g>
<g>
</g>
<g>
</g>
<g>
</g>
<g>
</g>
<g>
</g>
<g>
</g>
<g>
</g>
<g>
</g>
<g>
</g>
<g>
</g>
<g>
</g>
<g>
</g>
<g>
</g>
</svg>
