<?xml version="1.0" encoding="iso-8859-1"?>
<!-- Generator: Adobe Illustrator 19.0.0, SVG Export Plug-In . SVG Version: 6.00 Build 0)  -->
<svg xmlns="http://www.w3.org/2000/svg" xmlns:xlink="http://www.w3.org/1999/xlink" version="1.1" id="Capa_1" x="0px" y="0px" viewBox="0 0 512 512" style="enable-background:new 0 0 512 512;" xml:space="preserve">
<g>
	<g>
		<g>
			<path d="M197.758,346.01c14.934,0,27.494-10.358,30.874-24.268h54.737c3.38,13.909,15.94,24.268,30.874,24.268     c17.517,0,31.768-14.251,31.768-31.768c0-17.517-14.251-31.768-31.768-31.768c-14.934,0-27.494,10.358-30.874,24.268h-54.737     c-3.38-13.909-15.94-24.268-30.874-24.268c-17.517,0-31.768,14.251-31.768,31.768C165.99,331.759,180.241,346.01,197.758,346.01z      M314.242,306.742h-14.995c2.758-5.491,8.443-9.268,14.995-9.268c9.246,0,16.768,7.521,16.768,16.768     s-7.522,16.768-16.768,16.768c-6.552,0-12.237-3.776-14.995-9.268h14.995c4.142,0,7.5-3.357,7.5-7.5     S318.384,306.742,314.242,306.742z M197.758,297.475c6.552,0,12.237,3.776,14.995,9.268h-14.995c-4.142,0-7.5,3.357-7.5,7.5     s3.358,7.5,7.5,7.5h14.995c-2.758,5.491-8.443,9.268-14.995,9.268c-9.246,0-16.768-7.521-16.768-16.768     S188.512,297.475,197.758,297.475z"/>
			<path d="M197.758,229.526c14.934,0,27.494-10.358,30.874-24.268h54.737c3.38,13.909,15.94,24.268,30.874,24.268     c17.517,0,31.768-14.251,31.768-31.768c0-17.517-14.251-31.768-31.768-31.768c-14.934,0-27.494,10.358-30.874,24.268h-54.737     c-3.381-13.909-15.941-24.268-30.874-24.268c-17.517,0-31.768,14.251-31.768,31.768     C165.99,215.275,180.241,229.526,197.758,229.526z M314.242,190.258h-14.995c2.758-5.491,8.443-9.268,14.995-9.268     c9.246,0,16.768,7.521,16.768,16.768s-7.522,16.768-16.768,16.768c-6.552,0-12.237-3.776-14.995-9.268h14.995     c4.142,0,7.5-3.357,7.5-7.5S318.384,190.258,314.242,190.258z M197.758,180.99c6.552,0,12.237,3.776,14.995,9.268h-14.995     c-4.142,0-7.5,3.357-7.5,7.5s3.358,7.5,7.5,7.5h14.995c-2.758,5.491-8.443,9.268-14.995,9.268     c-9.246,0-16.768-7.521-16.768-16.768S188.512,180.99,197.758,180.99z"/>
			<path d="M110.14,395.996c-2.868-2.988-7.616-3.086-10.604-0.216c-2.988,2.868-3.085,7.616-0.216,10.604     c20.055,20.889,43.629,37.317,70.068,48.825c27.375,11.918,56.515,17.961,86.612,17.961c58.009,0,112.545-22.589,153.564-63.608     c41.018-41.017,63.608-95.555,63.608-153.563c0-58.008-22.59-112.545-63.608-153.563C368.545,61.418,314.009,38.828,256,38.828     c-58.009,0-112.545,22.59-153.564,63.609C61.418,143.454,38.828,197.991,38.828,256c0,45.225,13.767,88.572,39.812,125.356     c2.393,3.38,7.074,4.179,10.455,1.787c3.38-2.393,4.181-7.074,1.787-10.455C66.641,338.452,53.828,298.103,53.828,256     c0-111.478,90.694-202.172,202.172-202.172s202.171,90.695,202.171,202.173s-90.694,202.172-202.172,202.172     C200.434,458.173,148.633,436.092,110.14,395.996z"/>
			<path d="M489.245,150.34c-14.586-32.148-35.311-60.503-61.601-84.275c-3.073-2.78-7.815-2.541-10.593,0.532     c-2.778,3.072-2.539,7.816,0.533,10.593C468.054,122.828,497,188.002,497,256c0,132.888-108.112,241-241,241S15,388.888,15,256     S123.112,15,256,15c49.856,0,97.694,15.089,138.341,43.635c3.39,2.38,8.067,1.562,10.448-1.827     c2.381-3.389,1.563-8.067-1.827-10.448C359.777,16.031,308.958,0,256,0C187.62,0,123.333,26.629,74.98,74.98     C26.629,123.332,0,187.62,0,256s26.629,132.668,74.98,181.02C123.333,485.371,187.62,512,256,512s132.667-26.629,181.02-74.98     C485.371,388.668,512,324.38,512,256C512,219.17,504.344,183.621,489.245,150.34z"/>
		</g>
	</g>
</g>
<g>
</g>
<g>
</g>
<g>
</g>
<g>
</g>
<g>
</g>
<g>
</g>
<g>
</g>
<g>
</g>
<g>
</g>
<g>
</g>
<g>
</g>
<g>
</g>
<g>
</g>
<g>
</g>
<g>
</g>
</svg>
